<svg version="1.1" viewBox="0.0 0.0 1327.4698162729658 274.5721784776903" fill="none" stroke="none" stroke-linecap="square" stroke-miterlimit="10" xmlns:xlink="http://www.w3.org/1999/xlink" xmlns="http://www.w3.org/2000/svg"><clipPath id="p.0"><path d="m0 0l1327.4698 0l0 274.57217l-1327.4698 0l0 -274.57217z" clip-rule="nonzero"/></clipPath><g clip-path="url(#p.0)"><path fill="#000000" fill-opacity="0.0" d="m0 0l1327.4698 0l0 274.57217l-1327.4698 0z" fill-rule="evenodd"/><path fill="#6464ff" d="m77.31955 75.610664l0 0c34.81475 -34.81475 91.26062 -34.81475 126.07538 0l0 0c16.718628 16.718636 26.111053 39.393967 26.111053 63.03768c0 23.643723 -9.392426 46.31906 -26.111053 63.03769l0 0c-34.81476 34.81476 -91.26063 34.81476 -126.07538 0l0 0c-34.814754 -34.814743 -34.814754 -91.26061 0 -126.07537z" fill-rule="evenodd"/><path stroke="#6464ff" stroke-width="1.0" stroke-linejoin="round" stroke-linecap="butt" d="m77.31955 75.610664l0 0c34.81475 -34.81475 91.26062 -34.81475 126.07538 0l0 0c16.718628 16.718636 26.111053 39.393967 26.111053 63.03768c0 23.643723 -9.392426 46.31906 -26.111053 63.03769l0 0c-34.81476 34.81476 -91.26063 34.81476 -126.07538 0l0 0c-34.814754 -34.814743 -34.814754 -91.26061 0 -126.07537z" fill-rule="evenodd"/><path fill="#6464ff" d="m164.9174 16.093895l0 0c27.87378 -15.574852 62.67517 -10.935919 85.49603 11.396393c22.820847 22.33231 28.211685 57.025185 13.243607 85.22943l-23.567001 -12.507088c9.4227295 -17.755135 6.0290833 -39.594994 -8.337097 -53.653633c-14.366196 -14.058636 -36.27437 -16.978937 -53.821472 -7.1742554z" fill-rule="evenodd"/><path stroke="#6464ff" stroke-width="1.0" stroke-linejoin="round" stroke-linecap="butt" d="m164.9174 16.093895l0 0c27.87378 -15.574852 62.67517 -10.935919 85.49603 11.396393c22.820847 22.33231 28.211685 57.025185 13.243607 85.22943l-23.567001 -12.507088c9.4227295 -17.755135 6.0290833 -39.594994 -8.337097 -53.653633c-14.366196 -14.058636 -36.27437 -16.978937 -53.821472 -7.1742554z" fill-rule="evenodd"/><path fill="#6464ff" d="m241.7307 96.92741l0 0c4.9445496 -5.793236 13.649231 -6.4812317 19.44246 -1.5366898l0 0c2.782013 2.3744507 4.506836 5.7568054 4.7950134 9.402977c0.2881775 3.646164 -0.8838501 7.257477 -3.2583313 10.03949l0 0c-4.944519 5.793236 -13.649216 6.4812317 -19.44246 1.5366898l0 0c-5.793228 -4.944542 -6.4812317 -13.649231 -1.5366821 -19.442467z" fill-rule="evenodd"/><path fill="#6464ff" d="m164.98633 15.514909l0 0c6.7280273 -3.554659 15.073761 -0.95222664 18.640717 5.8126955l0 0c1.7129211 3.2486305 2.0722046 7.0423126 0.9988098 10.546478c-1.0733795 3.5041637 -3.491516 6.431772 -6.7224274 8.138781l0 0c-6.728012 3.554657 -15.073746 0.95222473 -18.640717 -5.8126984l0 0c-3.5669556 -6.764921 -1.0044098 -15.130596 5.7236176 -18.685257z" fill-rule="evenodd"/><path fill="#6464ff" d="m19.693945 162.51997l0 0c-15.574852 27.87378 -10.935919 62.675186 11.396393 85.49603c22.332312 22.820847 57.025185 28.211716 85.22943 13.243607l-12.507088 -23.566986c-17.755135 9.422714 -39.594994 6.0290833 -53.653633 -8.337112c-14.058636 -14.36618 -16.97894 -36.274353 -7.174259 -53.821457z" fill-rule="evenodd"/><path stroke="#6464ff" stroke-width="1.0" stroke-linejoin="round" stroke-linecap="butt" d="m19.693945 162.51997l0 0c-15.574852 27.87378 -10.935919 62.675186 11.396393 85.49603c22.332312 22.820847 57.025185 28.211716 85.22943 13.243607l-12.507088 -23.566986c-17.755135 9.422714 -39.594994 6.0290833 -53.653633 -8.337112c-14.058636 -14.36618 -16.97894 -36.274353 -7.174259 -53.821457z" fill-rule="evenodd"/><path fill="#6464ff" d="m100.52746 239.33327l0 0c-5.793236 4.9445496 -6.4812393 13.649246 -1.5366898 19.44246l0 0c2.3744507 2.782013 5.756798 4.506836 9.402969 4.7950134c3.6461716 0.288208 7.2574844 -0.8838501 10.039497 -3.2583008l0 0c5.793228 -4.9445496 6.4812317 -13.649246 1.5366898 -19.442474l0 0c-4.9445496 -5.793228 -13.649239 -6.4812317 -19.442467 -1.5366974z" fill-rule="evenodd"/><path fill="#6464ff" d="m19.11496 162.58891l0 0c-3.5546598 6.728012 -0.95222664 15.073746 5.8126945 18.640701l0 0c3.2486305 1.7129211 7.0423126 2.0722046 10.546478 0.9988251c3.5041656 -1.0733948 6.4317703 -3.491516 8.138779 -6.7224274l0 0c3.5546608 -6.7280273 0.95222855 -15.073761 -5.8126945 -18.640717l0 0c-6.764923 -3.5669556 -15.130598 -1.0044098 -18.685257 5.7236176z" fill-rule="evenodd"/><path fill="#6464ff" d="m421.49048 64.49171c16.67038 0 30.013153 5.5083313 40.02829 16.524994c10.015137 11.016663 15.022705 25.74862 15.022705 44.195885c0 18.253403 -5.0075684 32.953064 -15.022705 44.09897c-10.015137 11.113586 -23.35791 16.670364 -40.02829 16.670364c-16.896515 0 -30.352356 -5.508316 -40.367523 -16.524994c-10.015167 -11.016663 -15.022705 -25.764786 -15.022705 -44.24434c0 -18.641106 5.007538 -33.421524 15.022705 -44.341263c10.015137 -10.919746 23.470978 -16.379616 40.367523 -16.379616zm0 -46.182762c-19.674927 0 -37.70221 4.571434 -54.081818 13.714293c-16.34729 9.14286 -29.334686 21.85564 -38.96216 38.138332c-9.627472 16.25039 -14.441193 34.60073 -14.441193 55.051018c0 20.450287 4.8137207 38.865234 14.441193 55.244858c9.627472 16.379608 22.614868 29.140854 38.96216 38.283707c16.379608 9.110565 34.40689 13.6658325 54.081818 13.6658325c7.527527 0 15.265015 -0.79151917 23.212524 -2.3745575l26.798615 36.00609l61.641632 0l-45.843567 -55.051025c12.890472 -9.7243805 22.954071 -21.984863 30.190857 -36.781433c7.2367554 -14.796585 10.855103 -31.127747 10.855103 -48.99347c0 -20.450287 -4.716797 -38.80063 -14.150452 -55.051018c-9.401306 -16.282692 -22.291748 -28.995472 -38.671387 -38.138332c-16.379608 -9.1428585 -34.390717 -13.714293 -54.033325 -13.714293z" fill-rule="evenodd"/><path fill="#6464ff" d="m555.74854 64.20094l0 97.06618c0 14.4734955 2.6814575 27.073196 8.044434 37.799118c5.362915 10.725906 12.906616 18.91571 22.630981 24.569412c9.724426 5.653702 20.934937 8.480576 33.63153 8.480576c10.725891 0 20.49878 -2.229187 29.318542 -6.6875305c8.852112 -4.4906616 15.862732 -10.402832 21.0318 -17.736511l0 22.631012l50.883423 0l0 -166.12225l-50.883423 0l0 90.1848c0 11.113602 -2.8914795 19.755707 -8.674377 25.926315c-5.7506714 6.1383057 -13.585083 9.207474 -23.503296 9.207474c-9.724426 0 -17.461914 -3.069168 -23.212524 -9.207474c-5.7506714 -6.170639 -8.625977 -14.812744 -8.625977 -25.926315l0 -90.1848z" fill-rule="evenodd"/><path fill="#6464ff" d="m835.94916 106.16765c10.112061 0 18.689575 3.682991 25.732483 11.048973c7.0429077 7.333664 10.564392 17.348824 10.564392 30.045448c0 12.696625 -3.5214844 22.72792 -10.564392 30.093903c-7.0429077 7.333679 -15.620422 11.000519 -25.732483 11.000519c-10.144348 0 -18.738037 -3.7153015 -25.780945 -11.145905c-7.0429077 -7.4628906 -10.564331 -17.542664 -10.564331 -30.239288c0 -12.728928 3.5214233 -22.71177 10.564331 -29.948524c7.0429077 -7.2367477 15.636597 -10.855125 25.780945 -10.855125zm-14.925781 -44.38973c-13.6658325 0 -26.071716 3.4891472 -37.21759 10.467449c-11.113586 6.945984 -19.901062 16.86422 -26.362488 29.754684c-6.429077 12.890465 -9.643616 27.880882 -9.643616 44.971245c0 17.05806 3.2145386 32.096954 9.643616 45.11664c6.461426 12.987381 15.248901 23.002533 26.362488 30.04544c11.145874 7.042923 23.454834 10.564377 36.92682 10.564377c11.727417 0 22.001038 -2.3745575 30.8208 -7.1236877c8.852112 -4.781418 15.749634 -11.032806 20.692627 -18.754166l0 23.503296l50.931885 0l0 -166.12225l-50.931885 0l0 23.503296c-4.7491455 -7.7536697 -11.549744 -14.005058 -20.401855 -18.75418c-8.819763 -4.7814255 -19.093384 -7.172138 -30.8208 -7.172138z" fill-rule="evenodd"/><path fill="#6464ff" d="m1063.1206 62.407906c-10.9198 0 -20.854126 2.6330109 -29.803223 7.899048c-8.916626 5.233719 -16.347229 12.422012 -22.291748 21.564873l0 -27.670883l-50.931885 0l0 166.12225l50.931885 0l0 -77.100494c0 -13.698151 3.1661377 -23.27716 9.498291 -28.737022c6.364502 -5.459877 15.89502 -8.189812 28.591553 -8.189812l14.005127 0l0 -53.887962z" fill-rule="evenodd"/><path fill="#6464ff" d="m1087.5267 9.973755l0 220.34944l50.931885 0l0 -69.686066l50.59265 69.686066l63.14392 0l-69.686035 -82.77037l69.05603 -83.35188l-62.804688 0l-50.30188 67.55379l0 -121.780975z" fill-rule="evenodd"/></g></svg>