<svg width="365" height="225" viewBox="0 0 365 225" fill="none" xmlns="http://www.w3.org/2000/svg">
<g filter="url(#filter0_i)">
<rect x="95.7612" y="70.8806" width="43.4778" height="151.347" rx="10" fill="#323232"/>
</g>
<g filter="url(#filter1_i)">
<rect x="61.6392" y="212.173" width="112.272" height="12.1077" rx="6.05386" fill="#323232"/>
</g>
<g filter="url(#filter2_i)">
<rect y="23" width="235" height="140.34" rx="10" fill="#323232"/>
</g>
<g filter="url(#filter3_ii)">
<rect x="6.05371" y="28.5035" width="223.443" height="127.681" rx="5" fill="#0C0E37"/>
</g>
<rect x="48" y="49" width="45" height="3" rx="1.5" fill="#A28333"/>
<rect x="48" y="85" width="45" height="3" rx="1.5" fill="#A28333"/>
<rect x="96" y="93" width="26" height="3" rx="1.5" fill="#A28333"/>
<rect x="56" y="56" width="45" height="3" rx="1.5" fill="#33A252"/>
<rect x="64" y="63" width="45" height="3" rx="1.5" fill="#4333A2"/>
<rect x="48" y="93" width="45" height="3" rx="1.5" fill="#4333A2"/>
<rect x="56" y="100" width="45" height="3" rx="1.5" fill="#4333A2"/>
<rect x="111" y="63" width="14" height="3" rx="1.5" fill="#33A252"/>
<rect x="56" y="71" width="45" height="3" rx="1.5" fill="#A23333"/>
<rect x="56" y="78" width="30" height="3" rx="1.5" fill="#33A252"/>
<rect x="56" y="108" width="30" height="3" rx="1.5" fill="#33A252"/>
<g filter="url(#filter4_bd)">
<rect x="113" y="101" width="128" height="96" rx="7" fill="#404040" fill-opacity="0.7"/>
</g>
<g filter="url(#filter5_d)">
<path d="M113 108C113 104.134 116.134 101 120 101H234C237.866 101 241 104.134 241 108V112H113V108Z" fill="#212121" fill-opacity="0.8"/>
</g>
<circle cx="120" cy="107" r="2" fill="#FF8989"/>
<circle cx="126" cy="107" r="2" fill="#FFD089"/>
<circle cx="132" cy="107" r="2" fill="#89FFD5"/>
<path d="M121.175 123.235V122.93C120.818 122.907 120.527 122.773 120.3 122.53L120.515 122.23C120.528 122.24 120.535 122.257 120.535 122.28C120.535 122.303 120.54 122.322 120.55 122.335C120.713 122.512 120.922 122.613 121.175 122.64V121.54C120.915 121.453 120.72 121.35 120.59 121.23C120.46 121.107 120.395 120.953 120.395 120.77C120.395 120.587 120.467 120.428 120.61 120.295C120.757 120.162 120.945 120.078 121.175 120.045V119.745H121.495C121.498 119.748 121.5 119.753 121.5 119.76C121.5 119.767 121.495 119.778 121.485 119.795C121.475 119.808 121.468 119.827 121.465 119.85V120.04C121.775 120.073 122.023 120.202 122.21 120.425L121.995 120.695C121.978 120.688 121.968 120.673 121.965 120.65C121.965 120.627 121.957 120.607 121.94 120.59C121.827 120.457 121.668 120.372 121.465 120.335V121.3C121.752 121.393 121.962 121.498 122.095 121.615C122.232 121.728 122.3 121.888 122.3 122.095C122.3 122.218 122.267 122.34 122.2 122.46C122.133 122.577 122.037 122.677 121.91 122.76C121.787 122.843 121.638 122.897 121.465 122.92V123.235H121.175ZM121.175 121.195V120.33C121.025 120.347 120.912 120.393 120.835 120.47C120.762 120.547 120.725 120.633 120.725 120.73C120.725 120.92 120.875 121.075 121.175 121.195ZM121.465 122.63C121.625 122.6 121.75 122.537 121.84 122.44C121.93 122.34 121.975 122.232 121.975 122.115C121.975 121.995 121.935 121.9 121.855 121.83C121.775 121.757 121.645 121.692 121.465 121.635V122.63ZM126.13 122.225C126 122.225 125.882 122.202 125.775 122.155C125.715 122.228 125.685 122.298 125.685 122.365C125.685 122.445 125.735 122.503 125.835 122.54C125.935 122.573 126.118 122.59 126.385 122.59C126.618 122.59 126.795 122.615 126.915 122.665C127.035 122.715 127.117 122.783 127.16 122.87C127.203 122.957 127.225 123.057 127.225 123.17C127.225 123.287 127.193 123.398 127.13 123.505C127.067 123.612 126.962 123.697 126.815 123.76C126.672 123.827 126.478 123.86 126.235 123.86C125.915 123.86 125.66 123.81 125.47 123.71C125.283 123.613 125.19 123.467 125.19 123.27C125.19 123.147 125.225 123.042 125.295 122.955C125.365 122.865 125.448 122.798 125.545 122.755C125.435 122.682 125.38 122.58 125.38 122.45C125.38 122.377 125.398 122.305 125.435 122.235C125.472 122.165 125.522 122.097 125.585 122.03C125.415 121.88 125.33 121.678 125.33 121.425C125.33 121.278 125.362 121.145 125.425 121.025C125.492 120.905 125.585 120.81 125.705 120.74C125.825 120.667 125.967 120.63 126.13 120.63C126.253 120.63 126.363 120.652 126.46 120.695C126.56 120.735 126.645 120.792 126.715 120.865C126.802 120.785 126.893 120.728 126.99 120.695C127.087 120.658 127.2 120.645 127.33 120.655L127.375 120.95C127.275 120.94 127.18 120.942 127.09 120.955C127.003 120.968 126.922 121 126.845 121.05C126.902 121.163 126.93 121.288 126.93 121.425C126.93 121.572 126.897 121.707 126.83 121.83C126.767 121.95 126.675 122.047 126.555 122.12C126.438 122.19 126.297 122.225 126.13 122.225ZM126.13 121.925C126.277 121.925 126.397 121.877 126.49 121.78C126.583 121.68 126.63 121.562 126.63 121.425C126.63 121.288 126.583 121.172 126.49 121.075C126.397 120.975 126.277 120.925 126.13 120.925C125.987 120.925 125.867 120.975 125.77 121.075C125.677 121.172 125.63 121.288 125.63 121.425C125.63 121.562 125.677 121.68 125.77 121.78C125.867 121.877 125.987 121.925 126.13 121.925ZM125.52 123.23C125.52 123.343 125.583 123.432 125.71 123.495C125.84 123.558 126.017 123.59 126.24 123.59C126.467 123.59 126.632 123.555 126.735 123.485C126.842 123.418 126.895 123.332 126.895 123.225C126.895 123.152 126.882 123.092 126.855 123.045C126.828 122.998 126.773 122.963 126.69 122.94C126.607 122.917 126.48 122.905 126.31 122.905C126.193 122.905 126.087 122.9 125.99 122.89C125.897 122.88 125.812 122.863 125.735 122.84C125.658 122.893 125.603 122.947 125.57 123C125.537 123.057 125.52 123.133 125.52 123.23ZM128 123V122.71H128.585V121.005H128.03V120.715H128.945V122.71H129.48V123H128ZM128.745 120.235C128.675 120.235 128.615 120.21 128.565 120.16C128.515 120.11 128.49 120.05 128.49 119.98C128.49 119.907 128.513 119.845 128.56 119.795C128.61 119.745 128.672 119.72 128.745 119.72C128.815 119.72 128.875 119.747 128.925 119.8C128.978 119.85 129.005 119.91 129.005 119.98C129.005 120.05 128.978 120.11 128.925 120.16C128.875 120.21 128.815 120.235 128.745 120.235ZM131.495 123.035C131.298 123.035 131.148 122.99 131.045 122.9C130.945 122.81 130.878 122.672 130.845 122.485C130.812 122.295 130.8 122.053 130.81 121.76L130.84 121.01H130.35V120.715H130.85L130.87 120.13L131.245 120.085L131.295 120.08L131.3 120.115C131.283 120.138 131.268 120.162 131.255 120.185C131.245 120.208 131.237 120.248 131.23 120.305L131.195 120.715H131.995V121.01H131.2L131.165 121.785C131.155 122.038 131.162 122.235 131.185 122.375C131.208 122.512 131.25 122.607 131.31 122.66C131.37 122.71 131.45 122.735 131.55 122.735C131.66 122.735 131.757 122.713 131.84 122.67C131.927 122.627 132.017 122.572 132.11 122.505L132.22 122.79C132.107 122.873 131.99 122.935 131.87 122.975C131.75 123.015 131.625 123.035 131.495 123.035ZM136.055 123.055C135.795 123.055 135.595 122.997 135.455 122.88C135.315 122.76 135.245 122.608 135.245 122.425C135.245 122.262 135.297 122.122 135.4 122.005C135.503 121.885 135.642 121.793 135.815 121.73C135.992 121.663 136.185 121.63 136.395 121.63C136.472 121.63 136.552 121.632 136.635 121.635C136.722 121.638 136.813 121.647 136.91 121.66C136.89 121.393 136.82 121.21 136.7 121.11C136.583 121.01 136.415 120.96 136.195 120.96C136.085 120.96 135.977 120.982 135.87 121.025C135.763 121.065 135.667 121.128 135.58 121.215L135.405 120.985C135.512 120.878 135.635 120.798 135.775 120.745C135.915 120.692 136.063 120.665 136.22 120.665C136.423 120.665 136.6 120.698 136.75 120.765C136.9 120.832 137.017 120.947 137.1 121.11C137.183 121.273 137.225 121.498 137.225 121.785V123H136.835V122.65C136.778 122.76 136.705 122.845 136.615 122.905C136.528 122.962 136.435 123 136.335 123.02C136.238 123.043 136.145 123.055 136.055 123.055ZM135.605 122.405C135.605 122.548 135.652 122.647 135.745 122.7C135.838 122.753 135.953 122.78 136.09 122.78C136.337 122.78 136.532 122.708 136.675 122.565C136.818 122.418 136.897 122.208 136.91 121.935C136.737 121.912 136.575 121.9 136.425 121.9C136.185 121.9 135.988 121.94 135.835 122.02C135.682 122.1 135.605 122.228 135.605 122.405ZM138.67 123.05C138.517 123.05 138.367 123.007 138.22 122.92C138.077 122.83 137.958 122.695 137.865 122.515C137.772 122.335 137.725 122.108 137.725 121.835C137.725 121.555 137.773 121.328 137.87 121.155C137.967 120.982 138.088 120.855 138.235 120.775C138.385 120.695 138.537 120.655 138.69 120.655C138.847 120.655 138.982 120.692 139.095 120.765C139.212 120.835 139.298 120.93 139.355 121.05V119.675H139.735V119.71C139.715 119.73 139.702 119.752 139.695 119.775C139.692 119.798 139.69 119.838 139.69 119.895L139.695 122.645C139.695 122.705 139.697 122.765 139.7 122.825C139.707 122.882 139.722 122.94 139.745 123H139.39C139.367 122.94 139.352 122.882 139.345 122.825C139.342 122.765 139.34 122.705 139.34 122.645C139.267 122.768 139.173 122.867 139.06 122.94C138.947 123.013 138.817 123.05 138.67 123.05ZM138.725 122.735C138.872 122.735 138.988 122.695 139.075 122.615C139.165 122.535 139.228 122.428 139.265 122.295C139.305 122.158 139.325 122.008 139.325 121.845C139.325 121.588 139.275 121.375 139.175 121.205C139.075 121.035 138.915 120.95 138.695 120.95C138.492 120.95 138.337 121.025 138.23 121.175C138.127 121.325 138.075 121.527 138.075 121.78C138.075 122.067 138.13 122.298 138.24 122.475C138.35 122.648 138.512 122.735 138.725 122.735ZM141.17 123.05C141.017 123.05 140.867 123.007 140.72 122.92C140.577 122.83 140.458 122.695 140.365 122.515C140.272 122.335 140.225 122.108 140.225 121.835C140.225 121.555 140.273 121.328 140.37 121.155C140.467 120.982 140.588 120.855 140.735 120.775C140.885 120.695 141.037 120.655 141.19 120.655C141.347 120.655 141.482 120.692 141.595 120.765C141.712 120.835 141.798 120.93 141.855 121.05V119.675H142.235V119.71C142.215 119.73 142.202 119.752 142.195 119.775C142.192 119.798 142.19 119.838 142.19 119.895L142.195 122.645C142.195 122.705 142.197 122.765 142.2 122.825C142.207 122.882 142.222 122.94 142.245 123H141.89C141.867 122.94 141.852 122.882 141.845 122.825C141.842 122.765 141.84 122.705 141.84 122.645C141.767 122.768 141.673 122.867 141.56 122.94C141.447 123.013 141.317 123.05 141.17 123.05ZM141.225 122.735C141.372 122.735 141.488 122.695 141.575 122.615C141.665 122.535 141.728 122.428 141.765 122.295C141.805 122.158 141.825 122.008 141.825 121.845C141.825 121.588 141.775 121.375 141.675 121.205C141.575 121.035 141.415 120.95 141.195 120.95C140.992 120.95 140.837 121.025 140.73 121.175C140.627 121.325 140.575 121.527 140.575 121.78C140.575 122.067 140.63 122.298 140.74 122.475C140.85 122.648 141.012 122.735 141.225 122.735ZM146.19 123.055C146.11 123.055 146.042 123.027 145.985 122.97C145.928 122.913 145.9 122.847 145.9 122.77C145.9 122.693 145.928 122.627 145.985 122.57C146.042 122.513 146.11 122.485 146.19 122.485C146.267 122.485 146.333 122.513 146.39 122.57C146.447 122.627 146.475 122.693 146.475 122.77C146.475 122.847 146.447 122.913 146.39 122.97C146.333 123.027 146.267 123.055 146.19 123.055ZM121.175 128.235V127.93C120.818 127.907 120.527 127.773 120.3 127.53L120.515 127.23C120.528 127.24 120.535 127.257 120.535 127.28C120.535 127.303 120.54 127.322 120.55 127.335C120.713 127.512 120.922 127.613 121.175 127.64V126.54C120.915 126.453 120.72 126.35 120.59 126.23C120.46 126.107 120.395 125.953 120.395 125.77C120.395 125.587 120.467 125.428 120.61 125.295C120.757 125.162 120.945 125.078 121.175 125.045V124.745H121.495C121.498 124.748 121.5 124.753 121.5 124.76C121.5 124.767 121.495 124.778 121.485 124.795C121.475 124.808 121.468 124.827 121.465 124.85V125.04C121.775 125.073 122.023 125.202 122.21 125.425L121.995 125.695C121.978 125.688 121.968 125.673 121.965 125.65C121.965 125.627 121.957 125.607 121.94 125.59C121.827 125.457 121.668 125.372 121.465 125.335V126.3C121.752 126.393 121.962 126.498 122.095 126.615C122.232 126.728 122.3 126.888 122.3 127.095C122.3 127.218 122.267 127.34 122.2 127.46C122.133 127.577 122.037 127.677 121.91 127.76C121.787 127.843 121.638 127.897 121.465 127.92V128.235H121.175ZM121.175 126.195V125.33C121.025 125.347 120.912 125.393 120.835 125.47C120.762 125.547 120.725 125.633 120.725 125.73C120.725 125.92 120.875 126.075 121.175 126.195ZM121.465 127.63C121.625 127.6 121.75 127.537 121.84 127.44C121.93 127.34 121.975 127.232 121.975 127.115C121.975 126.995 121.935 126.9 121.855 126.83C121.775 126.757 121.645 126.692 121.465 126.635V127.63ZM126.13 127.225C126 127.225 125.882 127.202 125.775 127.155C125.715 127.228 125.685 127.298 125.685 127.365C125.685 127.445 125.735 127.503 125.835 127.54C125.935 127.573 126.118 127.59 126.385 127.59C126.618 127.59 126.795 127.615 126.915 127.665C127.035 127.715 127.117 127.783 127.16 127.87C127.203 127.957 127.225 128.057 127.225 128.17C127.225 128.287 127.193 128.398 127.13 128.505C127.067 128.612 126.962 128.697 126.815 128.76C126.672 128.827 126.478 128.86 126.235 128.86C125.915 128.86 125.66 128.81 125.47 128.71C125.283 128.613 125.19 128.467 125.19 128.27C125.19 128.147 125.225 128.042 125.295 127.955C125.365 127.865 125.448 127.798 125.545 127.755C125.435 127.682 125.38 127.58 125.38 127.45C125.38 127.377 125.398 127.305 125.435 127.235C125.472 127.165 125.522 127.097 125.585 127.03C125.415 126.88 125.33 126.678 125.33 126.425C125.33 126.278 125.362 126.145 125.425 126.025C125.492 125.905 125.585 125.81 125.705 125.74C125.825 125.667 125.967 125.63 126.13 125.63C126.253 125.63 126.363 125.652 126.46 125.695C126.56 125.735 126.645 125.792 126.715 125.865C126.802 125.785 126.893 125.728 126.99 125.695C127.087 125.658 127.2 125.645 127.33 125.655L127.375 125.95C127.275 125.94 127.18 125.942 127.09 125.955C127.003 125.968 126.922 126 126.845 126.05C126.902 126.163 126.93 126.288 126.93 126.425C126.93 126.572 126.897 126.707 126.83 126.83C126.767 126.95 126.675 127.047 126.555 127.12C126.438 127.19 126.297 127.225 126.13 127.225ZM126.13 126.925C126.277 126.925 126.397 126.877 126.49 126.78C126.583 126.68 126.63 126.562 126.63 126.425C126.63 126.288 126.583 126.172 126.49 126.075C126.397 125.975 126.277 125.925 126.13 125.925C125.987 125.925 125.867 125.975 125.77 126.075C125.677 126.172 125.63 126.288 125.63 126.425C125.63 126.562 125.677 126.68 125.77 126.78C125.867 126.877 125.987 126.925 126.13 126.925ZM125.52 128.23C125.52 128.343 125.583 128.432 125.71 128.495C125.84 128.558 126.017 128.59 126.24 128.59C126.467 128.59 126.632 128.555 126.735 128.485C126.842 128.418 126.895 128.332 126.895 128.225C126.895 128.152 126.882 128.092 126.855 128.045C126.828 127.998 126.773 127.963 126.69 127.94C126.607 127.917 126.48 127.905 126.31 127.905C126.193 127.905 126.087 127.9 125.99 127.89C125.897 127.88 125.812 127.863 125.735 127.84C125.658 127.893 125.603 127.947 125.57 128C125.537 128.057 125.52 128.133 125.52 128.23ZM128 128V127.71H128.585V126.005H128.03V125.715H128.945V127.71H129.48V128H128ZM128.745 125.235C128.675 125.235 128.615 125.21 128.565 125.16C128.515 125.11 128.49 125.05 128.49 124.98C128.49 124.907 128.513 124.845 128.56 124.795C128.61 124.745 128.672 124.72 128.745 124.72C128.815 124.72 128.875 124.747 128.925 124.8C128.978 124.85 129.005 124.91 129.005 124.98C129.005 125.05 128.978 125.11 128.925 125.16C128.875 125.21 128.815 125.235 128.745 125.235ZM131.495 128.035C131.298 128.035 131.148 127.99 131.045 127.9C130.945 127.81 130.878 127.672 130.845 127.485C130.812 127.295 130.8 127.053 130.81 126.76L130.84 126.01H130.35V125.715H130.85L130.87 125.13L131.245 125.085L131.295 125.08L131.3 125.115C131.283 125.138 131.268 125.162 131.255 125.185C131.245 125.208 131.237 125.248 131.23 125.305L131.195 125.715H131.995V126.01H131.2L131.165 126.785C131.155 127.038 131.162 127.235 131.185 127.375C131.208 127.512 131.25 127.607 131.31 127.66C131.37 127.71 131.45 127.735 131.55 127.735C131.66 127.735 131.757 127.713 131.84 127.67C131.927 127.627 132.017 127.572 132.11 127.505L132.22 127.79C132.107 127.873 131.99 127.935 131.87 127.975C131.75 128.015 131.625 128.035 131.495 128.035ZM136.425 128.055C136.205 128.055 136.008 128.003 135.835 127.9C135.662 127.797 135.525 127.655 135.425 127.475C135.328 127.295 135.28 127.09 135.28 126.86C135.28 126.63 135.328 126.427 135.425 126.25C135.525 126.07 135.66 125.928 135.83 125.825C136.003 125.722 136.2 125.67 136.42 125.67C136.607 125.67 136.773 125.708 136.92 125.785C137.07 125.858 137.192 125.962 137.285 126.095L137.06 126.315L137.025 126.35L137 126.325C137 126.298 136.993 126.273 136.98 126.25C136.97 126.227 136.945 126.195 136.905 126.155C136.832 126.088 136.753 126.042 136.67 126.015C136.587 125.988 136.49 125.975 136.38 125.975C136.253 125.975 136.133 126.01 136.02 126.08C135.91 126.15 135.82 126.25 135.75 126.38C135.683 126.507 135.65 126.658 135.65 126.835C135.65 127.005 135.683 127.158 135.75 127.295C135.82 127.428 135.915 127.535 136.035 127.615C136.155 127.692 136.292 127.73 136.445 127.73C136.675 127.73 136.873 127.637 137.04 127.45L137.25 127.695C137.027 127.935 136.752 128.055 136.425 128.055ZM138.75 128.04C138.543 128.04 138.36 127.99 138.2 127.89C138.043 127.787 137.92 127.647 137.83 127.47C137.74 127.29 137.695 127.085 137.695 126.855C137.695 126.622 137.74 126.417 137.83 126.24C137.92 126.06 138.043 125.92 138.2 125.82C138.36 125.717 138.543 125.665 138.75 125.665C138.957 125.665 139.138 125.717 139.295 125.82C139.455 125.92 139.58 126.06 139.67 126.24C139.76 126.417 139.805 126.622 139.805 126.855C139.805 127.085 139.76 127.29 139.67 127.47C139.58 127.647 139.455 127.787 139.295 127.89C139.138 127.99 138.957 128.04 138.75 128.04ZM138.75 127.74C138.883 127.74 139 127.702 139.1 127.625C139.2 127.548 139.278 127.443 139.335 127.31C139.395 127.177 139.425 127.023 139.425 126.85C139.425 126.59 139.362 126.378 139.235 126.215C139.108 126.048 138.947 125.965 138.75 125.965C138.553 125.965 138.392 126.048 138.265 126.215C138.138 126.378 138.075 126.59 138.075 126.85C138.075 127.023 138.103 127.177 138.16 127.31C138.22 127.443 138.3 127.548 138.4 127.625C138.503 127.702 138.62 127.74 138.75 127.74ZM140.19 128V125.715H140.52V125.94C140.573 125.857 140.642 125.79 140.725 125.74C140.808 125.687 140.895 125.66 140.985 125.66C141.085 125.66 141.172 125.692 141.245 125.755C141.322 125.818 141.37 125.898 141.39 125.995C141.433 125.895 141.502 125.815 141.595 125.755C141.688 125.692 141.792 125.66 141.905 125.66C142.062 125.66 142.175 125.717 142.245 125.83C142.318 125.94 142.352 126.078 142.345 126.245V128H142.015V126.38C142.015 126.24 142.005 126.138 141.985 126.075C141.968 126.012 141.943 125.972 141.91 125.955C141.877 125.935 141.84 125.925 141.8 125.925C141.737 125.925 141.677 125.955 141.62 126.015C141.567 126.072 141.522 126.143 141.485 126.23C141.452 126.317 141.435 126.403 141.435 126.49V128H141.1V126.41C141.1 126.22 141.082 126.093 141.045 126.03C141.012 125.967 140.947 125.935 140.85 125.935C140.777 125.935 140.703 125.983 140.63 126.08C140.557 126.173 140.52 126.305 140.52 126.475V128H140.19ZM142.69 128V125.715H143.02V125.94C143.073 125.857 143.142 125.79 143.225 125.74C143.308 125.687 143.395 125.66 143.485 125.66C143.585 125.66 143.672 125.692 143.745 125.755C143.822 125.818 143.87 125.898 143.89 125.995C143.933 125.895 144.002 125.815 144.095 125.755C144.188 125.692 144.292 125.66 144.405 125.66C144.562 125.66 144.675 125.717 144.745 125.83C144.818 125.94 144.852 126.078 144.845 126.245V128H144.515V126.38C144.515 126.24 144.505 126.138 144.485 126.075C144.468 126.012 144.443 125.972 144.41 125.955C144.377 125.935 144.34 125.925 144.3 125.925C144.237 125.925 144.177 125.955 144.12 126.015C144.067 126.072 144.022 126.143 143.985 126.23C143.952 126.317 143.935 126.403 143.935 126.49V128H143.6V126.41C143.6 126.22 143.582 126.093 143.545 126.03C143.512 125.967 143.447 125.935 143.35 125.935C143.277 125.935 143.203 125.983 143.13 126.08C143.057 126.173 143.02 126.305 143.02 126.475V128H142.69ZM145.5 128V127.71H146.085V126.005H145.53V125.715H146.445V127.71H146.98V128H145.5ZM146.245 125.235C146.175 125.235 146.115 125.21 146.065 125.16C146.015 125.11 145.99 125.05 145.99 124.98C145.99 124.907 146.013 124.845 146.06 124.795C146.11 124.745 146.172 124.72 146.245 124.72C146.315 124.72 146.375 124.747 146.425 124.8C146.478 124.85 146.505 124.91 146.505 124.98C146.505 125.05 146.478 125.11 146.425 125.16C146.375 125.21 146.315 125.235 146.245 125.235ZM148.995 128.035C148.798 128.035 148.648 127.99 148.545 127.9C148.445 127.81 148.378 127.672 148.345 127.485C148.312 127.295 148.3 127.053 148.31 126.76L148.34 126.01H147.85V125.715H148.35L148.37 125.13L148.745 125.085L148.795 125.08L148.8 125.115C148.783 125.138 148.768 125.162 148.755 125.185C148.745 125.208 148.737 125.248 148.73 125.305L148.695 125.715H149.495V126.01H148.7L148.665 126.785C148.655 127.038 148.662 127.235 148.685 127.375C148.708 127.512 148.75 127.607 148.81 127.66C148.87 127.71 148.95 127.735 149.05 127.735C149.16 127.735 149.257 127.713 149.34 127.67C149.427 127.627 149.517 127.572 149.61 127.505L149.72 127.79C149.607 127.873 149.49 127.935 149.37 127.975C149.25 128.015 149.125 128.035 148.995 128.035ZM153.055 126.595V126.26H154.455V126.595H153.055ZM156.055 128.055C155.795 128.055 155.595 127.997 155.455 127.88C155.315 127.76 155.245 127.608 155.245 127.425C155.245 127.262 155.297 127.122 155.4 127.005C155.503 126.885 155.642 126.793 155.815 126.73C155.992 126.663 156.185 126.63 156.395 126.63C156.472 126.63 156.552 126.632 156.635 126.635C156.722 126.638 156.813 126.647 156.91 126.66C156.89 126.393 156.82 126.21 156.7 126.11C156.583 126.01 156.415 125.96 156.195 125.96C156.085 125.96 155.977 125.982 155.87 126.025C155.763 126.065 155.667 126.128 155.58 126.215L155.405 125.985C155.512 125.878 155.635 125.798 155.775 125.745C155.915 125.692 156.063 125.665 156.22 125.665C156.423 125.665 156.6 125.698 156.75 125.765C156.9 125.832 157.017 125.947 157.1 126.11C157.183 126.273 157.225 126.498 157.225 126.785V128H156.835V127.65C156.778 127.76 156.705 127.845 156.615 127.905C156.528 127.962 156.435 128 156.335 128.02C156.238 128.043 156.145 128.055 156.055 128.055ZM155.605 127.405C155.605 127.548 155.652 127.647 155.745 127.7C155.838 127.753 155.953 127.78 156.09 127.78C156.337 127.78 156.532 127.708 156.675 127.565C156.818 127.418 156.897 127.208 156.91 126.935C156.737 126.912 156.575 126.9 156.425 126.9C156.185 126.9 155.988 126.94 155.835 127.02C155.682 127.1 155.605 127.228 155.605 127.405ZM157.69 128V125.715H158.02V125.94C158.073 125.857 158.142 125.79 158.225 125.74C158.308 125.687 158.395 125.66 158.485 125.66C158.585 125.66 158.672 125.692 158.745 125.755C158.822 125.818 158.87 125.898 158.89 125.995C158.933 125.895 159.002 125.815 159.095 125.755C159.188 125.692 159.292 125.66 159.405 125.66C159.562 125.66 159.675 125.717 159.745 125.83C159.818 125.94 159.852 126.078 159.845 126.245V128H159.515V126.38C159.515 126.24 159.505 126.138 159.485 126.075C159.468 126.012 159.443 125.972 159.41 125.955C159.377 125.935 159.34 125.925 159.3 125.925C159.237 125.925 159.177 125.955 159.12 126.015C159.067 126.072 159.022 126.143 158.985 126.23C158.952 126.317 158.935 126.403 158.935 126.49V128H158.6V126.41C158.6 126.22 158.582 126.093 158.545 126.03C158.512 125.967 158.447 125.935 158.35 125.935C158.277 125.935 158.203 125.983 158.13 126.08C158.057 126.173 158.02 126.305 158.02 126.475V128H157.69ZM163.435 124.81L163.605 124.96C163.512 125.047 163.433 125.14 163.37 125.24C163.31 125.34 163.28 125.422 163.28 125.485C163.28 125.532 163.302 125.573 163.345 125.61C163.388 125.647 163.43 125.685 163.47 125.725C163.513 125.762 163.535 125.81 163.535 125.87C163.535 125.953 163.507 126.023 163.45 126.08C163.397 126.137 163.327 126.165 163.24 126.165C163.153 126.165 163.075 126.127 163.005 126.05C162.935 125.973 162.9 125.873 162.9 125.75C162.9 125.49 163.078 125.177 163.435 124.81ZM164.46 124.81L164.63 124.96C164.537 125.047 164.458 125.14 164.395 125.24C164.335 125.34 164.305 125.422 164.305 125.485C164.305 125.532 164.327 125.573 164.37 125.61C164.413 125.647 164.455 125.685 164.495 125.725C164.538 125.762 164.56 125.81 164.56 125.87C164.56 125.953 164.532 126.023 164.475 126.08C164.422 126.137 164.352 126.165 164.265 126.165C164.178 126.165 164.1 126.127 164.03 126.05C163.96 125.973 163.925 125.873 163.925 125.75C163.925 125.49 164.103 125.177 164.46 124.81ZM166.495 128.035C166.298 128.035 166.148 127.99 166.045 127.9C165.945 127.81 165.878 127.672 165.845 127.485C165.812 127.295 165.8 127.053 165.81 126.76L165.84 126.01H165.35V125.715H165.85L165.87 125.13L166.245 125.085L166.295 125.08L166.3 125.115C166.283 125.138 166.268 125.162 166.255 125.185C166.245 125.208 166.237 125.248 166.23 125.305L166.195 125.715H166.995V126.01H166.2L166.165 126.785C166.155 127.038 166.162 127.235 166.185 127.375C166.208 127.512 166.25 127.607 166.31 127.66C166.37 127.71 166.45 127.735 166.55 127.735C166.66 127.735 166.757 127.713 166.84 127.67C166.927 127.627 167.017 127.572 167.11 127.505L167.22 127.79C167.107 127.873 166.99 127.935 166.87 127.975C166.75 128.015 166.625 128.035 166.495 128.035ZM168.75 128.04C168.543 128.04 168.36 127.99 168.2 127.89C168.043 127.787 167.92 127.647 167.83 127.47C167.74 127.29 167.695 127.085 167.695 126.855C167.695 126.622 167.74 126.417 167.83 126.24C167.92 126.06 168.043 125.92 168.2 125.82C168.36 125.717 168.543 125.665 168.75 125.665C168.957 125.665 169.138 125.717 169.295 125.82C169.455 125.92 169.58 126.06 169.67 126.24C169.76 126.417 169.805 126.622 169.805 126.855C169.805 127.085 169.76 127.29 169.67 127.47C169.58 127.647 169.455 127.787 169.295 127.89C169.138 127.99 168.957 128.04 168.75 128.04ZM168.75 127.74C168.883 127.74 169 127.702 169.1 127.625C169.2 127.548 169.278 127.443 169.335 127.31C169.395 127.177 169.425 127.023 169.425 126.85C169.425 126.59 169.362 126.378 169.235 126.215C169.108 126.048 168.947 125.965 168.75 125.965C168.553 125.965 168.392 126.048 168.265 126.215C168.138 126.378 168.075 126.59 168.075 126.85C168.075 127.023 168.103 127.177 168.16 127.31C168.22 127.443 168.3 127.548 168.4 127.625C168.503 127.702 168.62 127.74 168.75 127.74ZM171.25 128.04C171.043 128.04 170.86 127.99 170.7 127.89C170.543 127.787 170.42 127.647 170.33 127.47C170.24 127.29 170.195 127.085 170.195 126.855C170.195 126.622 170.24 126.417 170.33 126.24C170.42 126.06 170.543 125.92 170.7 125.82C170.86 125.717 171.043 125.665 171.25 125.665C171.457 125.665 171.638 125.717 171.795 125.82C171.955 125.92 172.08 126.06 172.17 126.24C172.26 126.417 172.305 126.622 172.305 126.855C172.305 127.085 172.26 127.29 172.17 127.47C172.08 127.647 171.955 127.787 171.795 127.89C171.638 127.99 171.457 128.04 171.25 128.04ZM171.25 127.74C171.383 127.74 171.5 127.702 171.6 127.625C171.7 127.548 171.778 127.443 171.835 127.31C171.895 127.177 171.925 127.023 171.925 126.85C171.925 126.59 171.862 126.378 171.735 126.215C171.608 126.048 171.447 125.965 171.25 125.965C171.053 125.965 170.892 126.048 170.765 126.215C170.638 126.378 170.575 126.59 170.575 126.85C170.575 127.023 170.603 127.177 170.66 127.31C170.72 127.443 170.8 127.548 170.9 127.625C171.003 127.702 171.12 127.74 171.25 127.74ZM172.895 128V127.71H173.57V124.965H172.925V124.675H173.935V127.71H174.605V128H172.895ZM178.31 126H177.815V125.715H178.31V125.525C178.31 125.218 178.388 124.995 178.545 124.855C178.705 124.715 178.907 124.645 179.15 124.645C179.293 124.645 179.427 124.672 179.55 124.725C179.677 124.775 179.782 124.853 179.865 124.96L179.675 125.225L179.645 125.265L179.615 125.245C179.612 125.218 179.605 125.192 179.595 125.165C179.585 125.138 179.562 125.105 179.525 125.065C179.472 125.018 179.418 124.985 179.365 124.965C179.312 124.945 179.243 124.935 179.16 124.935C179.017 124.935 178.897 124.98 178.8 125.07C178.703 125.157 178.655 125.308 178.655 125.525V125.715H179.405V126H178.655V128H178.31V126ZM181.25 128.04C181.043 128.04 180.86 127.99 180.7 127.89C180.543 127.787 180.42 127.647 180.33 127.47C180.24 127.29 180.195 127.085 180.195 126.855C180.195 126.622 180.24 126.417 180.33 126.24C180.42 126.06 180.543 125.92 180.7 125.82C180.86 125.717 181.043 125.665 181.25 125.665C181.457 125.665 181.638 125.717 181.795 125.82C181.955 125.92 182.08 126.06 182.17 126.24C182.26 126.417 182.305 126.622 182.305 126.855C182.305 127.085 182.26 127.29 182.17 127.47C182.08 127.647 181.955 127.787 181.795 127.89C181.638 127.99 181.457 128.04 181.25 128.04ZM181.25 127.74C181.383 127.74 181.5 127.702 181.6 127.625C181.7 127.548 181.778 127.443 181.835 127.31C181.895 127.177 181.925 127.023 181.925 126.85C181.925 126.59 181.862 126.378 181.735 126.215C181.608 126.048 181.447 125.965 181.25 125.965C181.053 125.965 180.892 126.048 180.765 126.215C180.638 126.378 180.575 126.59 180.575 126.85C180.575 127.023 180.603 127.177 180.66 127.31C180.72 127.443 180.8 127.548 180.9 127.625C181.003 127.702 181.12 127.74 181.25 127.74ZM183.095 125.715H183.47L183.46 126.135C183.523 125.982 183.622 125.865 183.755 125.785C183.888 125.702 184.032 125.66 184.185 125.66C184.428 125.66 184.63 125.743 184.79 125.91L184.63 126.19L184.61 126.235L184.575 126.215C184.568 126.188 184.558 126.163 184.545 126.14C184.532 126.117 184.503 126.088 184.46 126.055C184.407 126.022 184.357 126 184.31 125.99C184.267 125.977 184.217 125.97 184.16 125.97C184.05 125.97 183.94 125.998 183.83 126.055C183.723 126.112 183.635 126.2 183.565 126.32C183.495 126.44 183.46 126.597 183.46 126.79V128.005H183.095V125.715ZM189.35 128.835V127.635C189.28 127.762 189.183 127.863 189.06 127.94C188.937 128.013 188.8 128.05 188.65 128.05C188.477 128.05 188.318 128 188.175 127.9C188.032 127.8 187.918 127.66 187.835 127.48C187.752 127.297 187.71 127.087 187.71 126.85C187.71 126.597 187.755 126.382 187.845 126.205C187.938 126.028 188.062 125.893 188.215 125.8C188.368 125.703 188.535 125.655 188.715 125.655C188.875 125.655 189.01 125.69 189.12 125.76C189.23 125.83 189.313 125.927 189.37 126.05V125.715H189.71V128.835H189.35ZM188.715 127.735C188.888 127.735 189.035 127.662 189.155 127.515C189.278 127.368 189.34 127.128 189.34 126.795C189.34 126.482 189.285 126.263 189.175 126.14C189.065 126.013 188.925 125.95 188.755 125.95C188.565 125.95 188.403 126.022 188.27 126.165C188.14 126.305 188.075 126.528 188.075 126.835C188.075 127.112 188.133 127.332 188.25 127.495C188.367 127.655 188.522 127.735 188.715 127.735ZM191.105 128.055C190.878 128.055 190.69 127.97 190.54 127.8C190.39 127.63 190.317 127.36 190.32 126.99L190.325 125.715H190.675V126.99C190.675 127.28 190.725 127.482 190.825 127.595C190.928 127.708 191.052 127.765 191.195 127.765C191.302 127.765 191.402 127.737 191.495 127.68C191.588 127.623 191.663 127.537 191.72 127.42C191.78 127.303 191.81 127.155 191.81 126.975V125.715H192.16V127.645C192.16 127.705 192.162 127.765 192.165 127.825C192.172 127.882 192.187 127.94 192.21 128H191.865C191.842 127.943 191.827 127.885 191.82 127.825C191.817 127.765 191.815 127.707 191.815 127.65C191.742 127.777 191.642 127.877 191.515 127.95C191.392 128.02 191.255 128.055 191.105 128.055ZM193.555 128.055C193.295 128.055 193.095 127.997 192.955 127.88C192.815 127.76 192.745 127.608 192.745 127.425C192.745 127.262 192.797 127.122 192.9 127.005C193.003 126.885 193.142 126.793 193.315 126.73C193.492 126.663 193.685 126.63 193.895 126.63C193.972 126.63 194.052 126.632 194.135 126.635C194.222 126.638 194.313 126.647 194.41 126.66C194.39 126.393 194.32 126.21 194.2 126.11C194.083 126.01 193.915 125.96 193.695 125.96C193.585 125.96 193.477 125.982 193.37 126.025C193.263 126.065 193.167 126.128 193.08 126.215L192.905 125.985C193.012 125.878 193.135 125.798 193.275 125.745C193.415 125.692 193.563 125.665 193.72 125.665C193.923 125.665 194.1 125.698 194.25 125.765C194.4 125.832 194.517 125.947 194.6 126.11C194.683 126.273 194.725 126.498 194.725 126.785V128H194.335V127.65C194.278 127.76 194.205 127.845 194.115 127.905C194.028 127.962 193.935 128 193.835 128.02C193.738 128.043 193.645 128.055 193.555 128.055ZM193.105 127.405C193.105 127.548 193.152 127.647 193.245 127.7C193.338 127.753 193.453 127.78 193.59 127.78C193.837 127.78 194.032 127.708 194.175 127.565C194.318 127.418 194.397 127.208 194.41 126.935C194.237 126.912 194.075 126.9 193.925 126.9C193.685 126.9 193.488 126.94 193.335 127.02C193.182 127.1 193.105 127.228 193.105 127.405ZM195.595 125.715H195.97L195.96 126.135C196.023 125.982 196.122 125.865 196.255 125.785C196.388 125.702 196.532 125.66 196.685 125.66C196.928 125.66 197.13 125.743 197.29 125.91L197.13 126.19L197.11 126.235L197.075 126.215C197.068 126.188 197.058 126.163 197.045 126.14C197.032 126.117 197.003 126.088 196.96 126.055C196.907 126.022 196.857 126 196.81 125.99C196.767 125.977 196.717 125.97 196.66 125.97C196.55 125.97 196.44 125.998 196.33 126.055C196.223 126.112 196.135 126.2 196.065 126.32C195.995 126.44 195.96 126.597 195.96 126.79V128.005H195.595V125.715ZM198.495 126.855L198.195 127.135V128H197.83V124.675H198.24V124.71C198.22 124.73 198.207 124.752 198.2 124.775C198.197 124.798 198.195 124.838 198.195 124.895V126.765L199.34 125.705C199.377 125.712 199.417 125.718 199.46 125.725C199.507 125.728 199.555 125.73 199.605 125.73H199.735L198.775 126.635L199.895 128L199.43 128.02L198.495 126.855ZM201.605 126.165L201.435 126.015C201.528 125.928 201.605 125.835 201.665 125.735C201.728 125.635 201.76 125.553 201.76 125.49C201.76 125.443 201.738 125.402 201.695 125.365C201.655 125.328 201.613 125.29 201.57 125.25C201.527 125.21 201.505 125.162 201.505 125.105C201.505 125.022 201.532 124.952 201.585 124.895C201.642 124.838 201.713 124.81 201.8 124.81C201.887 124.81 201.965 124.848 202.035 124.925C202.105 125.002 202.14 125.102 202.14 125.225C202.14 125.485 201.962 125.798 201.605 126.165ZM200.58 126.165L200.41 126.015C200.503 125.928 200.58 125.835 200.64 125.735C200.703 125.635 200.735 125.553 200.735 125.49C200.735 125.443 200.713 125.402 200.67 125.365C200.627 125.328 200.583 125.29 200.54 125.25C200.5 125.21 200.48 125.162 200.48 125.105C200.48 125.022 200.507 124.952 200.56 124.895C200.617 124.838 200.688 124.81 200.775 124.81C200.862 124.81 200.94 124.848 201.01 124.925C201.08 125.002 201.115 125.102 201.115 125.225C201.115 125.485 200.937 125.798 200.58 126.165ZM121.175 133.235V132.93C120.818 132.907 120.527 132.773 120.3 132.53L120.515 132.23C120.528 132.24 120.535 132.257 120.535 132.28C120.535 132.303 120.54 132.322 120.55 132.335C120.713 132.512 120.922 132.613 121.175 132.64V131.54C120.915 131.453 120.72 131.35 120.59 131.23C120.46 131.107 120.395 130.953 120.395 130.77C120.395 130.587 120.467 130.428 120.61 130.295C120.757 130.162 120.945 130.078 121.175 130.045V129.745H121.495C121.498 129.748 121.5 129.753 121.5 129.76C121.5 129.767 121.495 129.778 121.485 129.795C121.475 129.808 121.468 129.827 121.465 129.85V130.04C121.775 130.073 122.023 130.202 122.21 130.425L121.995 130.695C121.978 130.688 121.968 130.673 121.965 130.65C121.965 130.627 121.957 130.607 121.94 130.59C121.827 130.457 121.668 130.372 121.465 130.335V131.3C121.752 131.393 121.962 131.498 122.095 131.615C122.232 131.728 122.3 131.888 122.3 132.095C122.3 132.218 122.267 132.34 122.2 132.46C122.133 132.577 122.037 132.677 121.91 132.76C121.787 132.843 121.638 132.897 121.465 132.92V133.235H121.175ZM121.175 131.195V130.33C121.025 130.347 120.912 130.393 120.835 130.47C120.762 130.547 120.725 130.633 120.725 130.73C120.725 130.92 120.875 131.075 121.175 131.195ZM121.465 132.63C121.625 132.6 121.75 132.537 121.84 132.44C121.93 132.34 121.975 132.232 121.975 132.115C121.975 131.995 121.935 131.9 121.855 131.83C121.775 131.757 121.645 131.692 121.465 131.635V132.63ZM126.13 132.225C126 132.225 125.882 132.202 125.775 132.155C125.715 132.228 125.685 132.298 125.685 132.365C125.685 132.445 125.735 132.503 125.835 132.54C125.935 132.573 126.118 132.59 126.385 132.59C126.618 132.59 126.795 132.615 126.915 132.665C127.035 132.715 127.117 132.783 127.16 132.87C127.203 132.957 127.225 133.057 127.225 133.17C127.225 133.287 127.193 133.398 127.13 133.505C127.067 133.612 126.962 133.697 126.815 133.76C126.672 133.827 126.478 133.86 126.235 133.86C125.915 133.86 125.66 133.81 125.47 133.71C125.283 133.613 125.19 133.467 125.19 133.27C125.19 133.147 125.225 133.042 125.295 132.955C125.365 132.865 125.448 132.798 125.545 132.755C125.435 132.682 125.38 132.58 125.38 132.45C125.38 132.377 125.398 132.305 125.435 132.235C125.472 132.165 125.522 132.097 125.585 132.03C125.415 131.88 125.33 131.678 125.33 131.425C125.33 131.278 125.362 131.145 125.425 131.025C125.492 130.905 125.585 130.81 125.705 130.74C125.825 130.667 125.967 130.63 126.13 130.63C126.253 130.63 126.363 130.652 126.46 130.695C126.56 130.735 126.645 130.792 126.715 130.865C126.802 130.785 126.893 130.728 126.99 130.695C127.087 130.658 127.2 130.645 127.33 130.655L127.375 130.95C127.275 130.94 127.18 130.942 127.09 130.955C127.003 130.968 126.922 131 126.845 131.05C126.902 131.163 126.93 131.288 126.93 131.425C126.93 131.572 126.897 131.707 126.83 131.83C126.767 131.95 126.675 132.047 126.555 132.12C126.438 132.19 126.297 132.225 126.13 132.225ZM126.13 131.925C126.277 131.925 126.397 131.877 126.49 131.78C126.583 131.68 126.63 131.562 126.63 131.425C126.63 131.288 126.583 131.172 126.49 131.075C126.397 130.975 126.277 130.925 126.13 130.925C125.987 130.925 125.867 130.975 125.77 131.075C125.677 131.172 125.63 131.288 125.63 131.425C125.63 131.562 125.677 131.68 125.77 131.78C125.867 131.877 125.987 131.925 126.13 131.925ZM125.52 133.23C125.52 133.343 125.583 133.432 125.71 133.495C125.84 133.558 126.017 133.59 126.24 133.59C126.467 133.59 126.632 133.555 126.735 133.485C126.842 133.418 126.895 133.332 126.895 133.225C126.895 133.152 126.882 133.092 126.855 133.045C126.828 132.998 126.773 132.963 126.69 132.94C126.607 132.917 126.48 132.905 126.31 132.905C126.193 132.905 126.087 132.9 125.99 132.89C125.897 132.88 125.812 132.863 125.735 132.84C125.658 132.893 125.603 132.947 125.57 133C125.537 133.057 125.52 133.133 125.52 133.23ZM128 133V132.71H128.585V131.005H128.03V130.715H128.945V132.71H129.48V133H128ZM128.745 130.235C128.675 130.235 128.615 130.21 128.565 130.16C128.515 130.11 128.49 130.05 128.49 129.98C128.49 129.907 128.513 129.845 128.56 129.795C128.61 129.745 128.672 129.72 128.745 129.72C128.815 129.72 128.875 129.747 128.925 129.8C128.978 129.85 129.005 129.91 129.005 129.98C129.005 130.05 128.978 130.11 128.925 130.16C128.875 130.21 128.815 130.235 128.745 130.235ZM131.495 133.035C131.298 133.035 131.148 132.99 131.045 132.9C130.945 132.81 130.878 132.672 130.845 132.485C130.812 132.295 130.8 132.053 130.81 131.76L130.84 131.01H130.35V130.715H130.85L130.87 130.13L131.245 130.085L131.295 130.08L131.3 130.115C131.283 130.138 131.268 130.162 131.255 130.185C131.245 130.208 131.237 130.248 131.23 130.305L131.195 130.715H131.995V131.01H131.2L131.165 131.785C131.155 132.038 131.162 132.235 131.185 132.375C131.208 132.512 131.25 132.607 131.31 132.66C131.37 132.71 131.45 132.735 131.55 132.735C131.66 132.735 131.757 132.713 131.84 132.67C131.927 132.627 132.017 132.572 132.11 132.505L132.22 132.79C132.107 132.873 131.99 132.935 131.87 132.975C131.75 133.015 131.625 133.035 131.495 133.035ZM135.3 133.835V130.715H135.665V131.165C135.718 130.992 135.807 130.865 135.93 130.785C136.057 130.705 136.2 130.665 136.36 130.665C136.53 130.665 136.687 130.708 136.83 130.795C136.977 130.878 137.093 131.007 137.18 131.18C137.27 131.353 137.315 131.573 137.315 131.84C137.315 132.107 137.268 132.332 137.175 132.515C137.082 132.695 136.962 132.832 136.815 132.925C136.668 133.015 136.513 133.06 136.35 133.06C136.213 133.06 136.085 133.028 135.965 132.965C135.845 132.902 135.747 132.813 135.67 132.7V133.835H135.3ZM136.29 132.74C136.397 132.74 136.5 132.715 136.6 132.665C136.7 132.612 136.782 132.52 136.845 132.39C136.908 132.26 136.94 132.082 136.94 131.855C136.94 131.582 136.888 131.37 136.785 131.22C136.682 131.067 136.535 130.985 136.345 130.975C136.222 130.968 136.108 130.997 136.005 131.06C135.902 131.12 135.818 131.222 135.755 131.365C135.695 131.508 135.665 131.698 135.665 131.935C135.672 132.205 135.732 132.407 135.845 132.54C135.958 132.673 136.107 132.74 136.29 132.74ZM138.605 133.055C138.378 133.055 138.19 132.97 138.04 132.8C137.89 132.63 137.817 132.36 137.82 131.99L137.825 130.715H138.175V131.99C138.175 132.28 138.225 132.482 138.325 132.595C138.428 132.708 138.552 132.765 138.695 132.765C138.802 132.765 138.902 132.737 138.995 132.68C139.088 132.623 139.163 132.537 139.22 132.42C139.28 132.303 139.31 132.155 139.31 131.975V130.715H139.66V132.645C139.66 132.705 139.662 132.765 139.665 132.825C139.672 132.882 139.687 132.94 139.71 133H139.365C139.342 132.943 139.327 132.885 139.32 132.825C139.317 132.765 139.315 132.707 139.315 132.65C139.242 132.777 139.142 132.877 139.015 132.95C138.892 133.02 138.755 133.055 138.605 133.055ZM141.255 133.05C140.868 133.05 140.545 132.93 140.285 132.69L140.485 132.35L140.515 132.305L140.545 132.325C140.552 132.352 140.558 132.38 140.565 132.41C140.575 132.437 140.598 132.47 140.635 132.51C140.705 132.58 140.788 132.638 140.885 132.685C140.985 132.728 141.112 132.75 141.265 132.75C141.448 132.75 141.59 132.718 141.69 132.655C141.793 132.588 141.845 132.498 141.845 132.385C141.845 132.288 141.802 132.208 141.715 132.145C141.632 132.082 141.483 132.015 141.27 131.945C141.007 131.868 140.797 131.773 140.64 131.66C140.487 131.547 140.41 131.405 140.41 131.235C140.41 131.062 140.48 130.923 140.62 130.82C140.763 130.713 140.973 130.66 141.25 130.66C141.463 130.66 141.64 130.69 141.78 130.75C141.92 130.81 142.047 130.9 142.16 131.02L141.955 131.27L141.92 131.31L141.895 131.285C141.892 131.258 141.883 131.233 141.87 131.21C141.86 131.183 141.837 131.152 141.8 131.115C141.723 131.055 141.637 131.01 141.54 130.98C141.443 130.947 141.35 130.93 141.26 130.93C141.127 130.93 141.012 130.953 140.915 131C140.818 131.047 140.77 131.118 140.77 131.215C140.77 131.265 140.787 131.315 140.82 131.365C140.857 131.412 140.922 131.46 141.015 131.51C141.108 131.557 141.242 131.605 141.415 131.655C141.702 131.742 141.903 131.837 142.02 131.94C142.14 132.04 142.2 132.172 142.2 132.335C142.2 132.462 142.165 132.58 142.095 132.69C142.028 132.8 141.925 132.888 141.785 132.955C141.645 133.018 141.468 133.05 141.255 133.05ZM142.865 129.675H143.26V129.71C143.24 129.73 143.227 129.752 143.22 129.775C143.217 129.798 143.215 129.838 143.215 129.895V131.12C143.305 130.98 143.417 130.868 143.55 130.785C143.687 130.702 143.825 130.66 143.965 130.66C144.172 130.66 144.338 130.733 144.465 130.88C144.595 131.023 144.66 131.268 144.66 131.615V133H144.31V131.625C144.31 131.385 144.268 131.217 144.185 131.12C144.105 131.023 144.007 130.975 143.89 130.975C143.79 130.975 143.687 131.003 143.58 131.06C143.477 131.117 143.39 131.198 143.32 131.305C143.25 131.408 143.215 131.535 143.215 131.685V133H142.865V129.675ZM148.75 133.04C148.543 133.04 148.36 132.99 148.2 132.89C148.043 132.787 147.92 132.647 147.83 132.47C147.74 132.29 147.695 132.085 147.695 131.855C147.695 131.622 147.74 131.417 147.83 131.24C147.92 131.06 148.043 130.92 148.2 130.82C148.36 130.717 148.543 130.665 148.75 130.665C148.957 130.665 149.138 130.717 149.295 130.82C149.455 130.92 149.58 131.06 149.67 131.24C149.76 131.417 149.805 131.622 149.805 131.855C149.805 132.085 149.76 132.29 149.67 132.47C149.58 132.647 149.455 132.787 149.295 132.89C149.138 132.99 148.957 133.04 148.75 133.04ZM148.75 132.74C148.883 132.74 149 132.702 149.1 132.625C149.2 132.548 149.278 132.443 149.335 132.31C149.395 132.177 149.425 132.023 149.425 131.85C149.425 131.59 149.362 131.378 149.235 131.215C149.108 131.048 148.947 130.965 148.75 130.965C148.553 130.965 148.392 131.048 148.265 131.215C148.138 131.378 148.075 131.59 148.075 131.85C148.075 132.023 148.103 132.177 148.16 132.31C148.22 132.443 148.3 132.548 148.4 132.625C148.503 132.702 148.62 132.74 148.75 132.74ZM150.595 130.715H150.97L150.96 131.135C151.023 130.982 151.122 130.865 151.255 130.785C151.388 130.702 151.532 130.66 151.685 130.66C151.928 130.66 152.13 130.743 152.29 130.91L152.13 131.19L152.11 131.235L152.075 131.215C152.068 131.188 152.058 131.163 152.045 131.14C152.032 131.117 152.003 131.088 151.96 131.055C151.907 131.022 151.857 131 151.81 130.99C151.767 130.977 151.717 130.97 151.66 130.97C151.55 130.97 151.44 130.998 151.33 131.055C151.223 131.112 151.135 131.2 151.065 131.32C150.995 131.44 150.96 131.597 150.96 131.79V133.005H150.595V130.715ZM153 133V132.71H153.585V131.005H153.03V130.715H153.945V132.71H154.48V133H153ZM153.745 130.235C153.675 130.235 153.615 130.21 153.565 130.16C153.515 130.11 153.49 130.05 153.49 129.98C153.49 129.907 153.513 129.845 153.56 129.795C153.61 129.745 153.672 129.72 153.745 129.72C153.815 129.72 153.875 129.747 153.925 129.8C153.978 129.85 154.005 129.91 154.005 129.98C154.005 130.05 153.978 130.11 153.925 130.16C153.875 130.21 153.815 130.235 153.745 130.235ZM156.13 132.225C156 132.225 155.882 132.202 155.775 132.155C155.715 132.228 155.685 132.298 155.685 132.365C155.685 132.445 155.735 132.503 155.835 132.54C155.935 132.573 156.118 132.59 156.385 132.59C156.618 132.59 156.795 132.615 156.915 132.665C157.035 132.715 157.117 132.783 157.16 132.87C157.203 132.957 157.225 133.057 157.225 133.17C157.225 133.287 157.193 133.398 157.13 133.505C157.067 133.612 156.962 133.697 156.815 133.76C156.672 133.827 156.478 133.86 156.235 133.86C155.915 133.86 155.66 133.81 155.47 133.71C155.283 133.613 155.19 133.467 155.19 133.27C155.19 133.147 155.225 133.042 155.295 132.955C155.365 132.865 155.448 132.798 155.545 132.755C155.435 132.682 155.38 132.58 155.38 132.45C155.38 132.377 155.398 132.305 155.435 132.235C155.472 132.165 155.522 132.097 155.585 132.03C155.415 131.88 155.33 131.678 155.33 131.425C155.33 131.278 155.362 131.145 155.425 131.025C155.492 130.905 155.585 130.81 155.705 130.74C155.825 130.667 155.967 130.63 156.13 130.63C156.253 130.63 156.363 130.652 156.46 130.695C156.56 130.735 156.645 130.792 156.715 130.865C156.802 130.785 156.893 130.728 156.99 130.695C157.087 130.658 157.2 130.645 157.33 130.655L157.375 130.95C157.275 130.94 157.18 130.942 157.09 130.955C157.003 130.968 156.922 131 156.845 131.05C156.902 131.163 156.93 131.288 156.93 131.425C156.93 131.572 156.897 131.707 156.83 131.83C156.767 131.95 156.675 132.047 156.555 132.12C156.438 132.19 156.297 132.225 156.13 132.225ZM156.13 131.925C156.277 131.925 156.397 131.877 156.49 131.78C156.583 131.68 156.63 131.562 156.63 131.425C156.63 131.288 156.583 131.172 156.49 131.075C156.397 130.975 156.277 130.925 156.13 130.925C155.987 130.925 155.867 130.975 155.77 131.075C155.677 131.172 155.63 131.288 155.63 131.425C155.63 131.562 155.677 131.68 155.77 131.78C155.867 131.877 155.987 131.925 156.13 131.925ZM155.52 133.23C155.52 133.343 155.583 133.432 155.71 133.495C155.84 133.558 156.017 133.59 156.24 133.59C156.467 133.59 156.632 133.555 156.735 133.485C156.842 133.418 156.895 133.332 156.895 133.225C156.895 133.152 156.882 133.092 156.855 133.045C156.828 132.998 156.773 132.963 156.69 132.94C156.607 132.917 156.48 132.905 156.31 132.905C156.193 132.905 156.087 132.9 155.99 132.89C155.897 132.88 155.812 132.863 155.735 132.84C155.658 132.893 155.603 132.947 155.57 133C155.537 133.057 155.52 133.133 155.52 133.23ZM158 133V132.71H158.585V131.005H158.03V130.715H158.945V132.71H159.48V133H158ZM158.745 130.235C158.675 130.235 158.615 130.21 158.565 130.16C158.515 130.11 158.49 130.05 158.49 129.98C158.49 129.907 158.513 129.845 158.56 129.795C158.61 129.745 158.672 129.72 158.745 129.72C158.815 129.72 158.875 129.747 158.925 129.8C158.978 129.85 159.005 129.91 159.005 129.98C159.005 130.05 158.978 130.11 158.925 130.16C158.875 130.21 158.815 130.235 158.745 130.235ZM160.36 133V130.715H160.71V131.12C160.797 130.98 160.908 130.868 161.045 130.785C161.185 130.702 161.332 130.66 161.485 130.66C161.672 130.66 161.83 130.733 161.96 130.88C162.09 131.023 162.155 131.268 162.155 131.615V133H161.805V131.625C161.805 131.385 161.763 131.217 161.68 131.12C161.6 131.023 161.502 130.975 161.385 130.975C161.285 130.975 161.182 131.005 161.075 131.065C160.972 131.122 160.885 131.203 160.815 131.31C160.745 131.413 160.71 131.538 160.71 131.685V133H160.36ZM165.19 133V130.715H165.52V130.94C165.573 130.857 165.642 130.79 165.725 130.74C165.808 130.687 165.895 130.66 165.985 130.66C166.085 130.66 166.172 130.692 166.245 130.755C166.322 130.818 166.37 130.898 166.39 130.995C166.433 130.895 166.502 130.815 166.595 130.755C166.688 130.692 166.792 130.66 166.905 130.66C167.062 130.66 167.175 130.717 167.245 130.83C167.318 130.94 167.352 131.078 167.345 131.245V133H167.015V131.38C167.015 131.24 167.005 131.138 166.985 131.075C166.968 131.012 166.943 130.972 166.91 130.955C166.877 130.935 166.84 130.925 166.8 130.925C166.737 130.925 166.677 130.955 166.62 131.015C166.567 131.072 166.522 131.143 166.485 131.23C166.452 131.317 166.435 131.403 166.435 131.49V133H166.1V131.41C166.1 131.22 166.082 131.093 166.045 131.03C166.012 130.967 165.947 130.935 165.85 130.935C165.777 130.935 165.703 130.983 165.63 131.08C165.557 131.173 165.52 131.305 165.52 131.475V133H165.19ZM168.555 133.055C168.295 133.055 168.095 132.997 167.955 132.88C167.815 132.76 167.745 132.608 167.745 132.425C167.745 132.262 167.797 132.122 167.9 132.005C168.003 131.885 168.142 131.793 168.315 131.73C168.492 131.663 168.685 131.63 168.895 131.63C168.972 131.63 169.052 131.632 169.135 131.635C169.222 131.638 169.313 131.647 169.41 131.66C169.39 131.393 169.32 131.21 169.2 131.11C169.083 131.01 168.915 130.96 168.695 130.96C168.585 130.96 168.477 130.982 168.37 131.025C168.263 131.065 168.167 131.128 168.08 131.215L167.905 130.985C168.012 130.878 168.135 130.798 168.275 130.745C168.415 130.692 168.563 130.665 168.72 130.665C168.923 130.665 169.1 130.698 169.25 130.765C169.4 130.832 169.517 130.947 169.6 131.11C169.683 131.273 169.725 131.498 169.725 131.785V133H169.335V132.65C169.278 132.76 169.205 132.845 169.115 132.905C169.028 132.962 168.935 133 168.835 133.02C168.738 133.043 168.645 133.055 168.555 133.055ZM168.105 132.405C168.105 132.548 168.152 132.647 168.245 132.7C168.338 132.753 168.453 132.78 168.59 132.78C168.837 132.78 169.032 132.708 169.175 132.565C169.318 132.418 169.397 132.208 169.41 131.935C169.237 131.912 169.075 131.9 168.925 131.9C168.685 131.9 168.488 131.94 168.335 132.02C168.182 132.1 168.105 132.228 168.105 132.405ZM170.5 133V132.71H171.085V131.005H170.53V130.715H171.445V132.71H171.98V133H170.5ZM171.245 130.235C171.175 130.235 171.115 130.21 171.065 130.16C171.015 130.11 170.99 130.05 170.99 129.98C170.99 129.907 171.013 129.845 171.06 129.795C171.11 129.745 171.172 129.72 171.245 129.72C171.315 129.72 171.375 129.747 171.425 129.8C171.478 129.85 171.505 129.91 171.505 129.98C171.505 130.05 171.478 130.11 171.425 130.16C171.375 130.21 171.315 130.235 171.245 130.235ZM172.86 133V130.715H173.21V131.12C173.297 130.98 173.408 130.868 173.545 130.785C173.685 130.702 173.832 130.66 173.985 130.66C174.172 130.66 174.33 130.733 174.46 130.88C174.59 131.023 174.655 131.268 174.655 131.615V133H174.305V131.625C174.305 131.385 174.263 131.217 174.18 131.12C174.1 131.023 174.002 130.975 173.885 130.975C173.785 130.975 173.682 131.005 173.575 131.065C173.472 131.122 173.385 131.203 173.315 131.31C173.245 131.413 173.21 131.538 173.21 131.685V133H172.86Z" fill="#5CEA7B" fill-opacity="0.65"/>
<g filter="url(#filter6_bd)">
<rect x="163" width="197.333" height="148" rx="7" fill="#C4C4C4" fill-opacity="0.8"/>
</g>
<g filter="url(#filter7_d)">
<path d="M163 7C163 3.13401 166.134 0 170 0H353C356.866 0 360 3.13401 360 7V12H163V7Z" fill="#212121" fill-opacity="0.8"/>
</g>
<circle cx="171" cy="7" r="2" fill="#FF8989"/>
<circle cx="177" cy="7" r="2" fill="#FFD089"/>
<circle cx="183" cy="7" r="2" fill="#89FFD5"/>
<g filter="url(#filter8_b)">
<rect x="318" y="20" width="33" height="48" rx="3" fill="#E4E4E4" fill-opacity="0.6"/>
</g>
<g filter="url(#filter9_b)">
<rect x="318" y="74" width="33" height="23" rx="3" fill="#E4E4E4" fill-opacity="0.6"/>
</g>
<circle cx="215" cy="88" r="32" fill="url(#paint0_radial)" fill-opacity="0.9"/>
<circle cx="271.5" cy="79.5" r="11.5" fill="url(#paint1_radial)" fill-opacity="0.9"/>
<ellipse cx="174.5" cy="131" rx="21.5" ry="22" fill="url(#paint2_radial)" fill-opacity="0.9"/>
<g filter="url(#filter10_d)">
<path d="M171.105 26V20.6475H169.193V19.5576H174.313V20.6475H172.406V26H171.105ZM176.378 19.5576V21.9263C176.777 21.4604 177.253 21.2275 177.807 21.2275C178.091 21.2275 178.347 21.2803 178.576 21.3857C178.804 21.4912 178.976 21.626 179.09 21.79C179.207 21.9541 179.286 22.1357 179.327 22.335C179.371 22.5342 179.393 22.8433 179.393 23.2622V26H178.158V23.5347C178.158 23.0454 178.135 22.7349 178.088 22.603C178.041 22.4712 177.958 22.3672 177.837 22.291C177.72 22.2119 177.572 22.1724 177.394 22.1724C177.188 22.1724 177.005 22.2222 176.844 22.3218C176.683 22.4214 176.564 22.5723 176.488 22.7744C176.415 22.9736 176.378 23.2695 176.378 23.6621V26H175.144V19.5576H176.378ZM183.353 24.5146L184.583 24.7212C184.425 25.1724 184.174 25.5166 183.832 25.7539C183.492 25.9883 183.065 26.1055 182.553 26.1055C181.741 26.1055 181.141 25.8403 180.751 25.3101C180.443 24.8853 180.29 24.3491 180.29 23.7017C180.29 22.9282 180.492 22.3232 180.896 21.8867C181.3 21.4473 181.812 21.2275 182.43 21.2275C183.124 21.2275 183.672 21.4575 184.073 21.9175C184.475 22.3745 184.667 23.0762 184.649 24.0225H181.555C181.564 24.3887 181.664 24.6743 181.854 24.8794C182.044 25.0815 182.282 25.1826 182.566 25.1826C182.759 25.1826 182.922 25.1299 183.054 25.0244C183.186 24.9189 183.285 24.749 183.353 24.5146ZM183.423 23.2666C183.414 22.9092 183.322 22.6382 183.146 22.4536C182.97 22.2661 182.756 22.1724 182.504 22.1724C182.235 22.1724 182.012 22.2705 181.836 22.4668C181.661 22.6631 181.574 22.9297 181.577 23.2666H183.423ZM187.844 23.9038L189.109 23.7808C189.186 24.2056 189.339 24.5176 189.571 24.7168C189.805 24.916 190.12 25.0156 190.516 25.0156C190.935 25.0156 191.25 24.9277 191.46 24.752C191.674 24.5732 191.781 24.3652 191.781 24.1279C191.781 23.9756 191.736 23.8467 191.645 23.7412C191.557 23.6328 191.402 23.5391 191.179 23.46C191.027 23.4072 190.68 23.3135 190.138 23.1787C189.44 23.0059 188.951 22.7935 188.67 22.5415C188.274 22.187 188.077 21.7549 188.077 21.2451C188.077 20.917 188.169 20.6108 188.354 20.3267C188.541 20.0396 188.809 19.8213 189.158 19.6719C189.509 19.5225 189.933 19.4478 190.428 19.4478C191.236 19.4478 191.844 19.625 192.251 19.9795C192.662 20.334 192.877 20.8071 192.897 21.3989L191.597 21.4561C191.541 21.125 191.421 20.8877 191.236 20.7441C191.055 20.5977 190.781 20.5244 190.415 20.5244C190.037 20.5244 189.741 20.6021 189.527 20.7573C189.389 20.8569 189.32 20.9902 189.32 21.1572C189.32 21.3096 189.385 21.4399 189.514 21.5483C189.678 21.686 190.076 21.8296 190.709 21.979C191.342 22.1284 191.809 22.2837 192.111 22.4448C192.416 22.603 192.653 22.8213 192.823 23.0996C192.996 23.375 193.082 23.7163 193.082 24.1235C193.082 24.4927 192.979 24.8384 192.774 25.1606C192.569 25.4829 192.279 25.7231 191.904 25.8813C191.529 26.0366 191.062 26.1143 190.502 26.1143C189.688 26.1143 189.062 25.9268 188.626 25.5518C188.189 25.1738 187.929 24.6245 187.844 23.9038ZM193.882 23.6006C193.882 23.1904 193.983 22.7935 194.185 22.4097C194.387 22.0259 194.673 21.7329 195.042 21.5308C195.414 21.3286 195.829 21.2275 196.286 21.2275C196.992 21.2275 197.57 21.4575 198.021 21.9175C198.473 22.3745 198.698 22.9531 198.698 23.6533C198.698 24.3594 198.47 24.9453 198.013 25.4111C197.559 25.874 196.986 26.1055 196.294 26.1055C195.867 26.1055 195.458 26.0088 195.068 25.8154C194.682 25.6221 194.387 25.3394 194.185 24.9673C193.983 24.5923 193.882 24.1367 193.882 23.6006ZM195.147 23.6665C195.147 24.1294 195.257 24.4839 195.477 24.73C195.697 24.9761 195.968 25.0991 196.29 25.0991C196.612 25.0991 196.882 24.9761 197.099 24.73C197.318 24.4839 197.428 24.1265 197.428 23.6577C197.428 23.2007 197.318 22.8491 197.099 22.603C196.882 22.3569 196.612 22.2339 196.29 22.2339C195.968 22.2339 195.697 22.3569 195.477 22.603C195.257 22.8491 195.147 23.2036 195.147 23.6665ZM199.669 26V19.5576H200.904V26H199.669ZM203.097 22.7568L201.977 22.5547C202.103 22.1035 202.319 21.7695 202.627 21.5527C202.935 21.3359 203.392 21.2275 203.998 21.2275C204.549 21.2275 204.959 21.2935 205.229 21.4253C205.498 21.5542 205.687 21.7197 205.795 21.9219C205.907 22.1211 205.962 22.4888 205.962 23.0249L205.949 24.4663C205.949 24.8765 205.968 25.1797 206.006 25.376C206.047 25.5693 206.122 25.7773 206.23 26H205.009C204.977 25.918 204.937 25.7964 204.89 25.6353C204.87 25.562 204.855 25.5137 204.846 25.4902C204.635 25.6953 204.41 25.8491 204.169 25.9517C203.929 26.0542 203.673 26.1055 203.4 26.1055C202.92 26.1055 202.541 25.9751 202.262 25.7144C201.987 25.4536 201.849 25.124 201.849 24.7256C201.849 24.4619 201.912 24.2275 202.038 24.0225C202.164 23.8145 202.34 23.6562 202.565 23.5479C202.794 23.4365 203.122 23.3398 203.55 23.2578C204.127 23.1494 204.527 23.0483 204.75 22.9546V22.8315C204.75 22.5942 204.691 22.4258 204.574 22.3262C204.457 22.2236 204.235 22.1724 203.91 22.1724C203.69 22.1724 203.519 22.2163 203.396 22.3042C203.273 22.3892 203.173 22.54 203.097 22.7568ZM204.75 23.7588C204.591 23.8115 204.341 23.8745 203.998 23.9478C203.655 24.021 203.431 24.0928 203.326 24.1631C203.165 24.2773 203.084 24.4224 203.084 24.5981C203.084 24.771 203.148 24.9204 203.277 25.0464C203.406 25.1724 203.57 25.2354 203.77 25.2354C203.992 25.2354 204.205 25.1621 204.407 25.0156C204.556 24.9043 204.654 24.7681 204.701 24.6069C204.733 24.5015 204.75 24.3008 204.75 24.0049V23.7588ZM208.366 26H207.131V21.333H208.278V21.9966C208.475 21.6831 208.65 21.4766 208.806 21.377C208.964 21.2773 209.143 21.2275 209.342 21.2275C209.623 21.2275 209.894 21.3052 210.155 21.4604L209.772 22.5371C209.564 22.4023 209.371 22.335 209.192 22.335C209.02 22.335 208.873 22.3833 208.753 22.48C208.633 22.5737 208.538 22.7451 208.467 22.9941C208.4 23.2432 208.366 23.7646 208.366 24.5586V26ZM212.875 23.9038L214.141 23.7808C214.217 24.2056 214.371 24.5176 214.602 24.7168C214.836 24.916 215.151 25.0156 215.547 25.0156C215.966 25.0156 216.281 24.9277 216.492 24.752C216.706 24.5732 216.812 24.3652 216.812 24.1279C216.812 23.9756 216.767 23.8467 216.676 23.7412C216.588 23.6328 216.433 23.5391 216.21 23.46C216.058 23.4072 215.711 23.3135 215.169 23.1787C214.472 23.0059 213.982 22.7935 213.701 22.5415C213.306 22.187 213.108 21.7549 213.108 21.2451C213.108 20.917 213.2 20.6108 213.385 20.3267C213.572 20.0396 213.84 19.8213 214.189 19.6719C214.541 19.5225 214.964 19.4478 215.459 19.4478C216.268 19.4478 216.875 19.625 217.283 19.9795C217.693 20.334 217.908 20.8071 217.929 21.3989L216.628 21.4561C216.572 21.125 216.452 20.8877 216.268 20.7441C216.086 20.5977 215.812 20.5244 215.446 20.5244C215.068 20.5244 214.772 20.6021 214.558 20.7573C214.42 20.8569 214.352 20.9902 214.352 21.1572C214.352 21.3096 214.416 21.4399 214.545 21.5483C214.709 21.686 215.107 21.8296 215.74 21.979C216.373 22.1284 216.84 22.2837 217.142 22.4448C217.447 22.603 217.684 22.8213 217.854 23.0996C218.027 23.375 218.113 23.7163 218.113 24.1235C218.113 24.4927 218.011 24.8384 217.806 25.1606C217.601 25.4829 217.311 25.7231 216.936 25.8813C216.561 26.0366 216.093 26.1143 215.534 26.1143C214.719 26.1143 214.094 25.9268 213.657 25.5518C213.221 25.1738 212.96 24.6245 212.875 23.9038ZM218.614 21.333H219.928L221.044 24.6465L222.134 21.333H223.413L221.765 25.8242L221.471 26.6372C221.362 26.9097 221.258 27.1177 221.159 27.2612C221.062 27.4048 220.949 27.5205 220.82 27.6084C220.694 27.6992 220.538 27.7695 220.35 27.8193C220.166 27.8691 219.956 27.894 219.722 27.894C219.484 27.894 219.251 27.8691 219.023 27.8193L218.913 26.8525C219.106 26.8906 219.281 26.9097 219.436 26.9097C219.723 26.9097 219.936 26.8247 220.073 26.6548C220.211 26.4878 220.316 26.2739 220.39 26.0132L218.614 21.333ZM223.773 24.6685L225.013 24.4795C225.065 24.7197 225.172 24.9028 225.333 25.0288C225.495 25.1519 225.72 25.2134 226.01 25.2134C226.33 25.2134 226.57 25.1548 226.731 25.0376C226.839 24.9556 226.894 24.8457 226.894 24.708C226.894 24.6143 226.864 24.5366 226.806 24.4751C226.744 24.4165 226.606 24.3623 226.393 24.3125C225.396 24.0928 224.765 23.8921 224.499 23.7104C224.129 23.4585 223.945 23.1084 223.945 22.6602C223.945 22.2559 224.104 21.916 224.424 21.6406C224.743 21.3652 225.238 21.2275 225.909 21.2275C226.548 21.2275 227.022 21.3315 227.333 21.5396C227.644 21.7476 227.857 22.0552 227.975 22.4624L226.81 22.6777C226.76 22.4961 226.665 22.3569 226.524 22.2603C226.387 22.1636 226.189 22.1152 225.931 22.1152C225.606 22.1152 225.373 22.1606 225.232 22.2515C225.139 22.3159 225.092 22.3994 225.092 22.502C225.092 22.5898 225.133 22.6646 225.215 22.7261C225.326 22.8081 225.71 22.9238 226.366 23.0732C227.025 23.2227 227.485 23.4058 227.746 23.6226C228.004 23.8423 228.133 24.1484 228.133 24.541C228.133 24.9688 227.954 25.3364 227.597 25.644C227.239 25.9517 226.71 26.1055 226.01 26.1055C225.375 26.1055 224.871 25.9766 224.499 25.7188C224.129 25.4609 223.888 25.1108 223.773 24.6685ZM231.358 21.333V22.3174H230.515V24.1982C230.515 24.5791 230.522 24.8018 230.537 24.8662C230.554 24.9277 230.591 24.979 230.646 25.02C230.705 25.061 230.775 25.0815 230.857 25.0815C230.972 25.0815 231.137 25.042 231.354 24.9629L231.459 25.9209C231.172 26.0439 230.847 26.1055 230.484 26.1055C230.261 26.1055 230.061 26.0688 229.882 25.9956C229.703 25.9194 229.571 25.8228 229.486 25.7056C229.404 25.5854 229.347 25.4243 229.315 25.2222C229.289 25.0786 229.275 24.7886 229.275 24.3521V22.3174H228.708V21.333H229.275V20.4058L230.515 19.6851V21.333H231.358ZM234.918 24.5146L236.148 24.7212C235.99 25.1724 235.74 25.5166 235.397 25.7539C235.057 25.9883 234.631 26.1055 234.118 26.1055C233.307 26.1055 232.706 25.8403 232.316 25.3101C232.009 24.8853 231.855 24.3491 231.855 23.7017C231.855 22.9282 232.057 22.3232 232.461 21.8867C232.866 21.4473 233.377 21.2275 233.995 21.2275C234.689 21.2275 235.237 21.4575 235.639 21.9175C236.04 22.3745 236.232 23.0762 236.214 24.0225H233.121C233.129 24.3887 233.229 24.6743 233.419 24.8794C233.61 25.0815 233.847 25.1826 234.131 25.1826C234.325 25.1826 234.487 25.1299 234.619 25.0244C234.751 24.9189 234.851 24.749 234.918 24.5146ZM234.988 23.2666C234.979 22.9092 234.887 22.6382 234.711 22.4536C234.536 22.2661 234.322 22.1724 234.07 22.1724C233.8 22.1724 233.578 22.2705 233.402 22.4668C233.226 22.6631 233.14 22.9297 233.143 23.2666H234.988ZM237.133 21.333H238.271V21.9702C238.678 21.4751 239.163 21.2275 239.726 21.2275C240.024 21.2275 240.284 21.2891 240.503 21.4121C240.723 21.5352 240.903 21.7212 241.044 21.9702C241.249 21.7212 241.47 21.5352 241.708 21.4121C241.945 21.2891 242.198 21.2275 242.468 21.2275C242.811 21.2275 243.101 21.2979 243.338 21.4385C243.575 21.5762 243.752 21.7798 243.87 22.0493C243.955 22.2485 243.997 22.5708 243.997 23.0161V26H242.762V23.3325C242.762 22.8696 242.72 22.5708 242.635 22.436C242.521 22.2603 242.345 22.1724 242.107 22.1724C241.935 22.1724 241.772 22.2251 241.62 22.3306C241.467 22.436 241.357 22.5913 241.29 22.7964C241.223 22.9985 241.189 23.3193 241.189 23.7588V26H239.954V23.4424C239.954 22.9883 239.932 22.6953 239.888 22.5635C239.844 22.4316 239.775 22.3335 239.682 22.269C239.591 22.2046 239.466 22.1724 239.308 22.1724C239.118 22.1724 238.946 22.2236 238.794 22.3262C238.642 22.4287 238.532 22.5767 238.464 22.77C238.4 22.9634 238.368 23.2842 238.368 23.7324V26H237.133V21.333Z" fill="#484848"/>
</g>
<defs>
<filter id="filter0_i" x="95.7612" y="70.8806" width="47.4778" height="155.347" filterUnits="userSpaceOnUse" color-interpolation-filters="sRGB">
<feFlood flood-opacity="0" result="BackgroundImageFix"/>
<feBlend mode="normal" in="SourceGraphic" in2="BackgroundImageFix" result="shape"/>
<feColorMatrix in="SourceAlpha" type="matrix" values="0 0 0 0 0 0 0 0 0 0 0 0 0 0 0 0 0 0 127 0" result="hardAlpha"/>
<feMorphology radius="5" operator="erode" in="SourceAlpha" result="effect1_innerShadow"/>
<feOffset dx="4" dy="4"/>
<feGaussianBlur stdDeviation="5"/>
<feComposite in2="hardAlpha" operator="arithmetic" k2="-1" k3="1"/>
<feColorMatrix type="matrix" values="0 0 0 0 0.75 0 0 0 0 0.75 0 0 0 0 0.75 0 0 0 0.4 0"/>
<feBlend mode="normal" in2="shape" result="effect1_innerShadow"/>
</filter>
<filter id="filter1_i" x="61.6392" y="212.173" width="116.272" height="16.1077" filterUnits="userSpaceOnUse" color-interpolation-filters="sRGB">
<feFlood flood-opacity="0" result="BackgroundImageFix"/>
<feBlend mode="normal" in="SourceGraphic" in2="BackgroundImageFix" result="shape"/>
<feColorMatrix in="SourceAlpha" type="matrix" values="0 0 0 0 0 0 0 0 0 0 0 0 0 0 0 0 0 0 127 0" result="hardAlpha"/>
<feMorphology radius="5" operator="erode" in="SourceAlpha" result="effect1_innerShadow"/>
<feOffset dx="4" dy="4"/>
<feGaussianBlur stdDeviation="5"/>
<feComposite in2="hardAlpha" operator="arithmetic" k2="-1" k3="1"/>
<feColorMatrix type="matrix" values="0 0 0 0 0.75 0 0 0 0 0.75 0 0 0 0 0.75 0 0 0 0.4 0"/>
<feBlend mode="normal" in2="shape" result="effect1_innerShadow"/>
</filter>
<filter id="filter2_i" x="0" y="23" width="239" height="144.34" filterUnits="userSpaceOnUse" color-interpolation-filters="sRGB">
<feFlood flood-opacity="0" result="BackgroundImageFix"/>
<feBlend mode="normal" in="SourceGraphic" in2="BackgroundImageFix" result="shape"/>
<feColorMatrix in="SourceAlpha" type="matrix" values="0 0 0 0 0 0 0 0 0 0 0 0 0 0 0 0 0 0 127 0" result="hardAlpha"/>
<feMorphology radius="5" operator="erode" in="SourceAlpha" result="effect1_innerShadow"/>
<feOffset dx="4" dy="4"/>
<feGaussianBlur stdDeviation="5"/>
<feComposite in2="hardAlpha" operator="arithmetic" k2="-1" k3="1"/>
<feColorMatrix type="matrix" values="0 0 0 0 0.75 0 0 0 0 0.75 0 0 0 0 0.75 0 0 0 0.4 0"/>
<feBlend mode="normal" in2="shape" result="effect1_innerShadow"/>
</filter>
<filter id="filter3_ii" x="6.05371" y="24.5035" width="227.443" height="135.681" filterUnits="userSpaceOnUse" color-interpolation-filters="sRGB">
<feFlood flood-opacity="0" result="BackgroundImageFix"/>
<feBlend mode="normal" in="SourceGraphic" in2="BackgroundImageFix" result="shape"/>
<feColorMatrix in="SourceAlpha" type="matrix" values="0 0 0 0 0 0 0 0 0 0 0 0 0 0 0 0 0 0 127 0" result="hardAlpha"/>
<feOffset dx="5" dy="4"/>
<feGaussianBlur stdDeviation="2"/>
<feComposite in2="hardAlpha" operator="arithmetic" k2="-1" k3="1"/>
<feColorMatrix type="matrix" values="0 0 0 0 0.208333 0 0 0 0 0.208333 0 0 0 0 0.208333 0 0 0 0.4 0"/>
<feBlend mode="normal" in2="shape" result="effect1_innerShadow"/>
<feColorMatrix in="SourceAlpha" type="matrix" values="0 0 0 0 0 0 0 0 0 0 0 0 0 0 0 0 0 0 127 0" result="hardAlpha"/>
<feOffset dy="-4"/>
<feGaussianBlur stdDeviation="2"/>
<feComposite in2="hardAlpha" operator="arithmetic" k2="-1" k3="1"/>
<feColorMatrix type="matrix" values="0 0 0 0 0.354167 0 0 0 0 0.354167 0 0 0 0 0.354167 0 0 0 0.25 0"/>
<feBlend mode="normal" in2="effect1_innerShadow" result="effect2_innerShadow"/>
</filter>
<filter id="filter4_bd" x="98" y="86" width="158" height="126" filterUnits="userSpaceOnUse" color-interpolation-filters="sRGB">
<feFlood flood-opacity="0" result="BackgroundImageFix"/>
<feGaussianBlur in="BackgroundImage" stdDeviation="7.5"/>
<feComposite in2="SourceAlpha" operator="in" result="effect1_backgroundBlur"/>
<feColorMatrix in="SourceAlpha" type="matrix" values="0 0 0 0 0 0 0 0 0 0 0 0 0 0 0 0 0 0 127 0"/>
<feOffset dy="4"/>
<feGaussianBlur stdDeviation="2"/>
<feColorMatrix type="matrix" values="0 0 0 0 0 0 0 0 0 0 0 0 0 0 0 0 0 0 0.25 0"/>
<feBlend mode="normal" in2="effect1_backgroundBlur" result="effect2_dropShadow"/>
<feBlend mode="normal" in="SourceGraphic" in2="effect2_dropShadow" result="shape"/>
</filter>
<filter id="filter5_d" x="109" y="101" width="136" height="19" filterUnits="userSpaceOnUse" color-interpolation-filters="sRGB">
<feFlood flood-opacity="0" result="BackgroundImageFix"/>
<feColorMatrix in="SourceAlpha" type="matrix" values="0 0 0 0 0 0 0 0 0 0 0 0 0 0 0 0 0 0 127 0"/>
<feOffset dy="4"/>
<feGaussianBlur stdDeviation="2"/>
<feColorMatrix type="matrix" values="0 0 0 0 0 0 0 0 0 0 0 0 0 0 0 0 0 0 0.25 0"/>
<feBlend mode="normal" in2="BackgroundImageFix" result="effect1_dropShadow"/>
<feBlend mode="normal" in="SourceGraphic" in2="effect1_dropShadow" result="shape"/>
</filter>
<filter id="filter6_bd" x="148" y="-15" width="227.333" height="178" filterUnits="userSpaceOnUse" color-interpolation-filters="sRGB">
<feFlood flood-opacity="0" result="BackgroundImageFix"/>
<feGaussianBlur in="BackgroundImage" stdDeviation="7.5"/>
<feComposite in2="SourceAlpha" operator="in" result="effect1_backgroundBlur"/>
<feColorMatrix in="SourceAlpha" type="matrix" values="0 0 0 0 0 0 0 0 0 0 0 0 0 0 0 0 0 0 127 0"/>
<feOffset dy="4"/>
<feGaussianBlur stdDeviation="2"/>
<feColorMatrix type="matrix" values="0 0 0 0 0 0 0 0 0 0 0 0 0 0 0 0 0 0 0.25 0"/>
<feBlend mode="normal" in2="effect1_backgroundBlur" result="effect2_dropShadow"/>
<feBlend mode="normal" in="SourceGraphic" in2="effect2_dropShadow" result="shape"/>
</filter>
<filter id="filter7_d" x="159" y="0" width="205" height="20" filterUnits="userSpaceOnUse" color-interpolation-filters="sRGB">
<feFlood flood-opacity="0" result="BackgroundImageFix"/>
<feColorMatrix in="SourceAlpha" type="matrix" values="0 0 0 0 0 0 0 0 0 0 0 0 0 0 0 0 0 0 127 0"/>
<feOffset dy="4"/>
<feGaussianBlur stdDeviation="2"/>
<feColorMatrix type="matrix" values="0 0 0 0 0 0 0 0 0 0 0 0 0 0 0 0 0 0 0.25 0"/>
<feBlend mode="normal" in2="BackgroundImageFix" result="effect1_dropShadow"/>
<feBlend mode="normal" in="SourceGraphic" in2="effect1_dropShadow" result="shape"/>
</filter>
<filter id="filter8_b" x="314" y="16" width="41" height="56" filterUnits="userSpaceOnUse" color-interpolation-filters="sRGB">
<feFlood flood-opacity="0" result="BackgroundImageFix"/>
<feGaussianBlur in="BackgroundImage" stdDeviation="2"/>
<feComposite in2="SourceAlpha" operator="in" result="effect1_backgroundBlur"/>
<feBlend mode="normal" in="SourceGraphic" in2="effect1_backgroundBlur" result="shape"/>
</filter>
<filter id="filter9_b" x="314" y="70" width="41" height="31" filterUnits="userSpaceOnUse" color-interpolation-filters="sRGB">
<feFlood flood-opacity="0" result="BackgroundImageFix"/>
<feGaussianBlur in="BackgroundImage" stdDeviation="2"/>
<feComposite in2="SourceAlpha" operator="in" result="effect1_backgroundBlur"/>
<feBlend mode="normal" in="SourceGraphic" in2="effect1_backgroundBlur" result="shape"/>
</filter>
<filter id="filter10_d" x="165.193" y="19.4478" width="82.8037" height="16.4463" filterUnits="userSpaceOnUse" color-interpolation-filters="sRGB">
<feFlood flood-opacity="0" result="BackgroundImageFix"/>
<feColorMatrix in="SourceAlpha" type="matrix" values="0 0 0 0 0 0 0 0 0 0 0 0 0 0 0 0 0 0 127 0"/>
<feOffset dy="4"/>
<feGaussianBlur stdDeviation="2"/>
<feColorMatrix type="matrix" values="0 0 0 0 0 0 0 0 0 0 0 0 0 0 0 0 0 0 0.25 0"/>
<feBlend mode="normal" in2="BackgroundImageFix" result="effect1_dropShadow"/>
<feBlend mode="normal" in="SourceGraphic" in2="effect1_dropShadow" result="shape"/>
</filter>
<radialGradient id="paint0_radial" cx="0" cy="0" r="1" gradientUnits="userSpaceOnUse" gradientTransform="translate(204 77) rotate(60.9031) scale(65.8046)">
<stop stop-color="#FFE8AB"/>
<stop offset="0.491915" stop-color="#FFC19D"/>
<stop offset="1" stop-color="#FF8989"/>
</radialGradient>
<radialGradient id="paint1_radial" cx="0" cy="0" r="1" gradientUnits="userSpaceOnUse" gradientTransform="translate(267.547 75.5469) rotate(60.9031) scale(23.6485)">
<stop stop-color="#D0ABFF"/>
<stop offset="0.491915" stop-color="#FF9DE9"/>
<stop offset="1" stop-color="#9A89FF"/>
</radialGradient>
<radialGradient id="paint2_radial" cx="0" cy="0" r="1" gradientUnits="userSpaceOnUse" gradientTransform="translate(167.109 123.437) rotate(61.4594) scale(44.9997 44.4493)">
<stop stop-color="#ABE1FF"/>
<stop offset="0.491915" stop-color="#ABFF9D"/>
<stop offset="1" stop-color="#FF8989"/>
<stop offset="1" stop-color="#FDFF89"/>
</radialGradient>
</defs>
</svg>
