<svg width="1382" height="1013" viewBox="0 0 1382 1013" fill="none" xmlns="http://www.w3.org/2000/svg">
<rect width="1382.3" height="1013.22" fill="white"/>
<path d="M1463.32 462.709C1569.34 458.032 1659.22 651.732 1590.55 761.493C1521.89 871.255 1381.33 910.031 1276.61 848.101C1171.89 786.171 1157.7 800.401 1171.77 677.015C1182.44 583.392 1310.55 469.448 1463.32 462.709Z" fill="url(#paint0_radial)" fill-opacity="0.8"/>
<g filter="url(#filter0_d)">
<path d="M1795.74 591.024C1820.18 830.864 1614.03 1384.04 1267.94 1417.38C921.839 1450.72 458.043 1355.6 480.372 1127.92C504.985 876.933 820.875 695.488 1067.83 689.503C1390.99 681.671 1771.3 351.184 1795.74 591.024Z" fill="url(#paint1_radial)"/>
</g>
<g filter="url(#filter1_d)">
<path d="M645.619 -445.638C670.06 -205.798 463.912 347.376 117.817 380.717C-228.279 414.058 -692.075 318.935 -669.747 91.2528C-645.133 -159.73 -329.243 -341.174 -82.2893 -347.159C240.868 -354.992 621.177 -685.478 645.619 -445.638Z" fill="url(#paint2_radial)" fill-opacity="0.8"/>
</g>
<path d="M130.512 424.55C129.019 424.55 127.803 424.102 126.864 423.206C125.968 422.267 125.52 421.051 125.52 419.558V383.718C125.52 382.224 125.925 381.072 126.736 380.262C127.547 379.451 128.699 379.046 130.192 379.046H152.208C153.829 379.046 155.024 379.366 155.792 380.006C156.56 380.646 156.944 381.648 156.944 383.014C156.944 384.336 156.56 385.318 155.792 385.958C155.024 386.598 153.829 386.918 152.208 386.918H135.376V397.286H150.928C152.549 397.286 153.744 397.606 154.512 398.246C155.28 398.886 155.664 399.888 155.664 401.254C155.664 402.576 155.28 403.558 154.512 404.198C153.744 404.838 152.549 405.158 150.928 405.158H135.376V419.558C135.376 421.094 134.928 422.31 134.032 423.206C133.179 424.102 132.005 424.55 130.512 424.55ZM175.856 424.678C172.528 424.678 169.605 424.016 167.088 422.694C164.571 421.328 162.629 419.43 161.264 416.998C159.899 414.523 159.216 411.622 159.216 408.294C159.216 404.966 159.899 402.086 161.264 399.654C162.629 397.179 164.571 395.28 167.088 393.958C169.605 392.635 172.528 391.974 175.856 391.974C179.184 391.974 182.107 392.635 184.624 393.958C187.141 395.28 189.083 397.179 190.448 399.654C191.813 402.086 192.496 404.966 192.496 408.294C192.496 411.622 191.813 414.523 190.448 416.998C189.083 419.43 187.141 421.328 184.624 422.694C182.107 424.016 179.184 424.678 175.856 424.678ZM175.856 417.318C180.549 417.318 182.896 414.31 182.896 408.294C182.896 405.264 182.277 403.003 181.04 401.51C179.845 400.016 178.117 399.27 175.856 399.27C171.163 399.27 168.816 402.278 168.816 408.294C168.816 414.31 171.163 417.318 175.856 417.318ZM217.129 392.102C218.409 392.016 219.412 392.315 220.137 392.998C220.905 393.638 221.289 394.619 221.289 395.942C221.289 397.35 220.948 398.395 220.265 399.078C219.582 399.76 218.366 400.187 216.617 400.358L214.697 400.55C212.35 400.806 210.644 401.574 209.577 402.854C208.553 404.134 208.041 405.776 208.041 407.782V420.006C208.041 421.499 207.572 422.63 206.633 423.398C205.737 424.166 204.606 424.55 203.241 424.55C201.833 424.55 200.66 424.166 199.721 423.398C198.825 422.63 198.377 421.499 198.377 420.006V396.518C198.377 395.11 198.846 394.022 199.785 393.254C200.724 392.486 201.854 392.102 203.177 392.102C204.457 392.102 205.524 392.486 206.377 393.254C207.23 393.979 207.657 395.003 207.657 396.326V398.054C208.425 396.219 209.577 394.811 211.113 393.83C212.692 392.848 214.398 392.294 216.233 392.166L217.129 392.102ZM253.844 424.678C251.241 424.678 248.98 424.464 247.06 424.038C245.14 423.611 243.454 422.928 242.004 421.99C241.364 421.606 240.873 421.094 240.532 420.454C240.19 419.814 240.02 419.088 240.02 418.278C240.02 417.296 240.297 416.486 240.852 415.846C241.406 415.163 242.089 414.822 242.9 414.822C243.454 414.822 244.009 414.928 244.564 415.142C245.118 415.312 245.694 415.526 246.292 415.782C247.486 416.336 248.66 416.784 249.812 417.126C250.964 417.424 252.393 417.574 254.1 417.574C255.593 417.574 256.745 417.339 257.556 416.87C258.409 416.4 258.836 415.76 258.836 414.95C258.836 414.352 258.644 413.883 258.26 413.542C257.918 413.158 257.257 412.816 256.276 412.518C255.294 412.219 253.737 411.856 251.604 411.43C247.806 410.704 245.076 409.616 243.412 408.166C241.748 406.715 240.916 404.688 240.916 402.086C240.916 400.166 241.492 398.438 242.644 396.902C243.838 395.366 245.46 394.171 247.508 393.318C249.556 392.422 251.86 391.974 254.42 391.974C256.254 391.974 258.046 392.208 259.796 392.678C261.545 393.147 263.102 393.808 264.468 394.662C265.79 395.472 266.452 396.667 266.452 398.246C266.452 399.27 266.174 400.123 265.62 400.806C265.065 401.488 264.382 401.83 263.572 401.83C262.59 401.83 261.417 401.446 260.052 400.678C258.985 400.123 258.004 399.718 257.108 399.462C256.254 399.163 255.23 399.014 254.036 399.014C252.713 399.014 251.668 399.27 250.9 399.782C250.132 400.251 249.748 400.912 249.748 401.766C249.748 402.662 250.196 403.344 251.092 403.814C251.988 404.283 253.716 404.752 256.276 405.222C259.134 405.776 261.374 406.459 262.996 407.27C264.617 408.038 265.79 409.019 266.516 410.214C267.241 411.408 267.604 412.923 267.604 414.758C267.604 417.787 266.345 420.198 263.828 421.99C261.353 423.782 258.025 424.678 253.844 424.678ZM290.287 417.51C291.567 417.595 292.505 417.915 293.103 418.47C293.7 419.024 293.999 419.835 293.999 420.902C293.999 422.139 293.508 423.078 292.527 423.718C291.545 424.358 290.137 424.614 288.303 424.486L286.511 424.358C279.044 423.76 275.311 419.856 275.311 412.646V399.974H272.751C271.343 399.974 270.276 399.675 269.551 399.078C268.825 398.438 268.463 397.542 268.463 396.39C268.463 395.195 268.825 394.299 269.551 393.702C270.276 393.062 271.343 392.742 272.751 392.742H275.311V387.75C275.311 386.342 275.737 385.232 276.591 384.422C277.487 383.611 278.681 383.206 280.175 383.206C281.668 383.206 282.841 383.611 283.695 384.422C284.548 385.232 284.975 386.342 284.975 387.75V392.742H289.455C292.356 392.742 293.807 393.958 293.807 396.39C293.807 397.542 293.444 398.438 292.719 399.078C291.993 399.675 290.905 399.974 289.455 399.974H284.975V413.35C284.975 414.63 285.273 415.611 285.871 416.294C286.468 416.934 287.343 417.296 288.495 417.382L290.287 417.51ZM322.973 392.102C324.466 392.102 325.639 392.507 326.493 393.318C327.389 394.128 327.837 395.238 327.837 396.646V420.134C327.837 421.456 327.367 422.523 326.429 423.334C325.533 424.144 324.359 424.55 322.909 424.55C321.543 424.55 320.455 424.166 319.645 423.398C318.834 422.63 318.429 421.606 318.429 420.326V419.686C317.447 421.307 316.146 422.544 314.525 423.398C312.946 424.251 311.154 424.678 309.149 424.678C305.181 424.678 302.215 423.59 300.253 421.414C298.333 419.195 297.373 415.867 297.373 411.43V396.646C297.373 395.238 297.799 394.128 298.653 393.318C299.549 392.507 300.743 392.102 302.237 392.102C303.73 392.102 304.903 392.507 305.757 393.318C306.61 394.128 307.037 395.238 307.037 396.646V411.622C307.037 413.499 307.421 414.886 308.189 415.782C308.999 416.678 310.215 417.126 311.837 417.126C313.714 417.126 315.229 416.486 316.381 415.206C317.575 413.926 318.173 412.24 318.173 410.15V396.646C318.173 395.238 318.599 394.128 319.453 393.318C320.306 392.507 321.479 392.102 322.973 392.102ZM362.068 378.726C363.561 378.726 364.756 379.131 365.652 379.942C366.591 380.752 367.06 381.819 367.06 383.142V420.006C367.06 421.371 366.612 422.48 365.716 423.334C364.863 424.144 363.711 424.55 362.26 424.55C360.809 424.55 359.636 424.144 358.74 423.334C357.887 422.48 357.46 421.371 357.46 420.006V419.494C356.521 421.115 355.177 422.395 353.428 423.334C351.721 424.23 349.78 424.678 347.604 424.678C344.916 424.678 342.505 423.995 340.372 422.63C338.281 421.222 336.639 419.28 335.444 416.806C334.292 414.288 333.716 411.408 333.716 408.166C333.716 404.923 334.292 402.086 335.444 399.654C336.639 397.179 338.281 395.28 340.372 393.958C342.463 392.635 344.873 391.974 347.604 391.974C349.737 391.974 351.657 392.422 353.364 393.318C355.113 394.214 356.457 395.472 357.396 397.094V382.95C357.396 381.67 357.823 380.646 358.676 379.878C359.529 379.11 360.66 378.726 362.068 378.726ZM350.42 417.318C352.681 417.318 354.409 416.55 355.604 415.014C356.841 413.435 357.46 411.195 357.46 408.294C357.46 405.392 356.841 403.174 355.604 401.638C354.409 400.102 352.681 399.334 350.42 399.334C348.159 399.334 346.409 400.102 345.172 401.638C343.935 403.131 343.316 405.307 343.316 408.166C343.316 411.067 343.935 413.328 345.172 414.95C346.409 416.528 348.159 417.318 350.42 417.318ZM399.718 414.822C400.571 414.822 401.254 415.163 401.766 415.846C402.321 416.528 402.598 417.403 402.598 418.47C402.598 419.195 402.385 419.878 401.958 420.518C401.531 421.115 400.934 421.627 400.166 422.054C398.715 422.822 397.03 423.462 395.11 423.974C393.19 424.443 391.419 424.678 389.798 424.678C386.385 424.678 383.398 424.016 380.838 422.694C378.321 421.371 376.379 419.494 375.014 417.062C373.649 414.587 372.966 411.686 372.966 408.358C372.966 405.158 373.627 402.32 374.95 399.846C376.273 397.371 378.107 395.451 380.454 394.086C382.801 392.678 385.467 391.974 388.454 391.974C391.313 391.974 393.809 392.614 395.942 393.894C398.118 395.131 399.803 396.923 400.998 399.27C402.193 401.574 402.79 404.283 402.79 407.398C402.79 408.336 402.555 409.062 402.086 409.574C401.659 410.043 401.041 410.278 400.23 410.278H382.31C382.609 412.795 383.377 414.63 384.614 415.782C385.851 416.891 387.622 417.446 389.926 417.446C391.163 417.446 392.273 417.296 393.254 416.998C394.235 416.699 395.323 416.294 396.518 415.782C397.115 415.526 397.691 415.312 398.246 415.142C398.801 414.928 399.291 414.822 399.718 414.822ZM388.71 398.63C386.875 398.63 385.403 399.227 384.294 400.422C383.185 401.574 382.523 403.259 382.31 405.478H394.662C394.534 403.216 393.958 401.51 392.934 400.358C391.953 399.206 390.545 398.63 388.71 398.63ZM428.339 391.974C432.094 391.974 434.888 393.083 436.723 395.302C438.558 397.478 439.475 400.784 439.475 405.222V420.006C439.475 421.414 439.027 422.523 438.131 423.334C437.278 424.144 436.104 424.55 434.611 424.55C433.118 424.55 431.944 424.144 431.091 423.334C430.238 422.523 429.811 421.414 429.811 420.006V405.67C429.811 403.536 429.406 401.979 428.595 400.998C427.827 400.016 426.611 399.526 424.947 399.526C422.942 399.526 421.32 400.166 420.083 401.446C418.888 402.726 418.291 404.432 418.291 406.566V420.006C418.291 421.414 417.864 422.523 417.011 423.334C416.158 424.144 414.984 424.55 413.491 424.55C411.998 424.55 410.803 424.144 409.907 423.334C409.054 422.523 408.627 421.414 408.627 420.006V396.518C408.627 395.195 409.075 394.128 409.971 393.318C410.91 392.507 412.104 392.102 413.555 392.102C414.878 392.102 415.944 392.507 416.755 393.318C417.608 394.086 418.035 395.088 418.035 396.326V397.222C419.144 395.515 420.574 394.214 422.323 393.318C424.115 392.422 426.12 391.974 428.339 391.974ZM464.162 417.51C465.442 417.595 466.38 417.915 466.978 418.47C467.575 419.024 467.874 419.835 467.874 420.902C467.874 422.139 467.383 423.078 466.402 423.718C465.42 424.358 464.012 424.614 462.178 424.486L460.386 424.358C452.919 423.76 449.186 419.856 449.186 412.646V399.974H446.626C445.218 399.974 444.151 399.675 443.426 399.078C442.7 398.438 442.338 397.542 442.338 396.39C442.338 395.195 442.7 394.299 443.426 393.702C444.151 393.062 445.218 392.742 446.626 392.742H449.186V387.75C449.186 386.342 449.612 385.232 450.466 384.422C451.362 383.611 452.556 383.206 454.05 383.206C455.543 383.206 456.716 383.611 457.57 384.422C458.423 385.232 458.85 386.342 458.85 387.75V392.742H463.33C466.231 392.742 467.682 393.958 467.682 396.39C467.682 397.542 467.319 398.438 466.594 399.078C465.868 399.675 464.78 399.974 463.33 399.974H458.85V413.35C458.85 414.63 459.148 415.611 459.746 416.294C460.343 416.934 461.218 417.296 462.37 417.382L464.162 417.51ZM483.344 424.678C480.741 424.678 478.48 424.464 476.56 424.038C474.64 423.611 472.954 422.928 471.504 421.99C470.864 421.606 470.373 421.094 470.032 420.454C469.69 419.814 469.52 419.088 469.52 418.278C469.52 417.296 469.797 416.486 470.352 415.846C470.906 415.163 471.589 414.822 472.4 414.822C472.954 414.822 473.509 414.928 474.064 415.142C474.618 415.312 475.194 415.526 475.792 415.782C476.986 416.336 478.16 416.784 479.312 417.126C480.464 417.424 481.893 417.574 483.6 417.574C485.093 417.574 486.245 417.339 487.056 416.87C487.909 416.4 488.336 415.76 488.336 414.95C488.336 414.352 488.144 413.883 487.76 413.542C487.418 413.158 486.757 412.816 485.776 412.518C484.794 412.219 483.237 411.856 481.104 411.43C477.306 410.704 474.576 409.616 472.912 408.166C471.248 406.715 470.416 404.688 470.416 402.086C470.416 400.166 470.992 398.438 472.144 396.902C473.338 395.366 474.96 394.171 477.008 393.318C479.056 392.422 481.36 391.974 483.92 391.974C485.754 391.974 487.546 392.208 489.296 392.678C491.045 393.147 492.602 393.808 493.968 394.662C495.29 395.472 495.952 396.667 495.952 398.246C495.952 399.27 495.674 400.123 495.12 400.806C494.565 401.488 493.882 401.83 493.072 401.83C492.09 401.83 490.917 401.446 489.552 400.678C488.485 400.123 487.504 399.718 486.608 399.462C485.754 399.163 484.73 399.014 483.536 399.014C482.213 399.014 481.168 399.27 480.4 399.782C479.632 400.251 479.248 400.912 479.248 401.766C479.248 402.662 479.696 403.344 480.592 403.814C481.488 404.283 483.216 404.752 485.776 405.222C488.634 405.776 490.874 406.459 492.496 407.27C494.117 408.038 495.29 409.019 496.016 410.214C496.741 411.408 497.104 412.923 497.104 414.758C497.104 417.787 495.845 420.198 493.328 421.99C490.853 423.782 487.525 424.678 483.344 424.678ZM506.731 413.542C508.437 413.542 509.803 414.16 510.827 415.398C511.851 416.592 512.363 418.342 512.363 420.646C512.363 425.083 510.763 428.966 507.563 432.294C506.923 432.934 506.24 433.254 505.515 433.254C504.789 433.254 504.149 432.998 503.595 432.486C503.083 432.016 502.827 431.44 502.827 430.758C502.827 430.118 503.061 429.563 503.531 429.094C504.939 427.643 505.877 426.022 506.347 424.23C504.896 424.102 503.723 423.568 502.827 422.63C501.931 421.691 501.483 420.496 501.483 419.046C501.483 417.467 501.973 416.166 502.955 415.142C503.979 414.075 505.237 413.542 506.731 413.542Z" fill="url(#paint3_linear)"/>
<path d="M172.987 459.595C232.192 545.232 108.689 720.552 -23.4473 720.552C-155.583 720.552 -262.701 623.945 -262.701 504.773C-262.701 385.602 -282.579 381.21 -166.843 328.779C-79.0242 288.995 87.6765 336.196 172.987 459.595Z" fill="url(#paint4_radial)" fill-opacity="0.8"/>
<path d="M144.208 461.535C146.939 461.535 149.349 462.196 151.44 463.519C153.531 464.841 155.152 466.74 156.304 469.215C157.499 471.647 158.096 474.484 158.096 477.727C158.096 480.969 157.499 483.849 156.304 486.367C155.152 488.841 153.509 490.783 151.376 492.191C149.285 493.556 146.896 494.239 144.208 494.239C142.032 494.239 140.069 493.791 138.32 492.895C136.571 491.956 135.227 490.676 134.288 489.055V489.567C134.288 490.932 133.861 492.041 133.008 492.895C132.155 493.705 131.003 494.111 129.552 494.111C128.101 494.111 126.928 493.705 126.032 492.895C125.179 492.041 124.752 490.932 124.752 489.567V452.703C124.752 451.38 125.2 450.313 126.096 449.503C127.035 448.692 128.251 448.287 129.744 448.287C131.152 448.287 132.283 448.671 133.136 449.439C133.989 450.207 134.416 451.231 134.416 452.511V466.527C135.355 464.948 136.677 463.732 138.384 462.879C140.133 461.983 142.075 461.535 144.208 461.535ZM141.392 486.879C143.653 486.879 145.403 486.089 146.64 484.511C147.877 482.889 148.496 480.628 148.496 477.727C148.496 474.868 147.877 472.692 146.64 471.199C145.403 469.663 143.653 468.895 141.392 468.895C139.131 468.895 137.381 469.684 136.144 471.263C134.907 472.799 134.288 474.996 134.288 477.855C134.288 480.756 134.907 482.996 136.144 484.575C137.381 486.111 139.131 486.879 141.392 486.879ZM184.817 464.415C185.201 463.519 185.734 462.857 186.417 462.431C187.142 462.004 187.91 461.791 188.721 461.791C189.958 461.791 191.046 462.196 191.985 463.007C192.924 463.775 193.393 464.713 193.393 465.823C193.393 466.42 193.244 467.017 192.945 467.615L175.729 502.943C175.302 503.839 174.726 504.5 174.001 504.927C173.276 505.396 172.508 505.631 171.697 505.631C170.502 505.631 169.457 505.247 168.561 504.479C167.665 503.711 167.217 502.772 167.217 501.663C167.217 500.98 167.366 500.34 167.665 499.743L171.889 490.975L160.497 467.615C160.241 467.017 160.113 466.441 160.113 465.887C160.113 464.735 160.604 463.753 161.585 462.943C162.609 462.132 163.761 461.727 165.041 461.727C165.894 461.727 166.684 461.961 167.409 462.431C168.134 462.857 168.71 463.519 169.137 464.415L177.073 481.695L184.817 464.415ZM227.344 494.239C224.741 494.239 222.48 494.025 220.56 493.599C218.64 493.172 216.954 492.489 215.504 491.551C214.864 491.167 214.373 490.655 214.032 490.015C213.69 489.375 213.52 488.649 213.52 487.839C213.52 486.857 213.797 486.047 214.352 485.407C214.906 484.724 215.589 484.383 216.4 484.383C216.954 484.383 217.509 484.489 218.064 484.703C218.618 484.873 219.194 485.087 219.792 485.343C220.986 485.897 222.16 486.345 223.312 486.687C224.464 486.985 225.893 487.135 227.6 487.135C229.093 487.135 230.245 486.9 231.056 486.431C231.909 485.961 232.336 485.321 232.336 484.511C232.336 483.913 232.144 483.444 231.76 483.103C231.418 482.719 230.757 482.377 229.776 482.079C228.794 481.78 227.237 481.417 225.104 480.991C221.306 480.265 218.576 479.177 216.912 477.727C215.248 476.276 214.416 474.249 214.416 471.647C214.416 469.727 214.992 467.999 216.144 466.463C217.338 464.927 218.96 463.732 221.008 462.879C223.056 461.983 225.36 461.535 227.92 461.535C229.754 461.535 231.546 461.769 233.296 462.239C235.045 462.708 236.602 463.369 237.968 464.223C239.29 465.033 239.952 466.228 239.952 467.807C239.952 468.831 239.674 469.684 239.12 470.367C238.565 471.049 237.882 471.391 237.072 471.391C236.09 471.391 234.917 471.007 233.552 470.239C232.485 469.684 231.504 469.279 230.608 469.023C229.754 468.724 228.73 468.575 227.536 468.575C226.213 468.575 225.168 468.831 224.4 469.343C223.632 469.812 223.248 470.473 223.248 471.327C223.248 472.223 223.696 472.905 224.592 473.375C225.488 473.844 227.216 474.313 229.776 474.783C232.634 475.337 234.874 476.02 236.496 476.831C238.117 477.599 239.29 478.58 240.016 479.775C240.741 480.969 241.104 482.484 241.104 484.319C241.104 487.348 239.845 489.759 237.328 491.551C234.853 493.343 231.525 494.239 227.344 494.239ZM263.787 487.071C265.067 487.156 266.005 487.476 266.603 488.031C267.2 488.585 267.499 489.396 267.499 490.463C267.499 491.7 267.008 492.639 266.027 493.279C265.045 493.919 263.637 494.175 261.803 494.047L260.011 493.919C252.544 493.321 248.811 489.417 248.811 482.207V469.535H246.251C244.843 469.535 243.776 469.236 243.051 468.639C242.325 467.999 241.963 467.103 241.963 465.951C241.963 464.756 242.325 463.86 243.051 463.263C243.776 462.623 244.843 462.303 246.251 462.303H248.811V457.311C248.811 455.903 249.237 454.793 250.091 453.983C250.987 453.172 252.181 452.767 253.675 452.767C255.168 452.767 256.341 453.172 257.195 453.983C258.048 454.793 258.475 455.903 258.475 457.311V462.303H262.955C265.856 462.303 267.307 463.519 267.307 465.951C267.307 467.103 266.944 467.999 266.219 468.639C265.493 469.236 264.405 469.535 262.955 469.535H258.475V482.911C258.475 484.191 258.773 485.172 259.371 485.855C259.968 486.495 260.843 486.857 261.995 486.943L263.787 487.071ZM296.473 461.663C297.966 461.663 299.139 462.068 299.993 462.879C300.889 463.689 301.337 464.799 301.337 466.207V489.695C301.337 491.017 300.867 492.084 299.929 492.895C299.033 493.705 297.859 494.111 296.409 494.111C295.043 494.111 293.955 493.727 293.145 492.959C292.334 492.191 291.929 491.167 291.929 489.887V489.247C290.947 490.868 289.646 492.105 288.025 492.959C286.446 493.812 284.654 494.239 282.649 494.239C278.681 494.239 275.715 493.151 273.753 490.975C271.833 488.756 270.873 485.428 270.873 480.991V466.207C270.873 464.799 271.299 463.689 272.153 462.879C273.049 462.068 274.243 461.663 275.737 461.663C277.23 461.663 278.403 462.068 279.257 462.879C280.11 463.689 280.537 464.799 280.537 466.207V481.183C280.537 483.06 280.921 484.447 281.689 485.343C282.499 486.239 283.715 486.687 285.337 486.687C287.214 486.687 288.729 486.047 289.881 484.767C291.075 483.487 291.673 481.801 291.673 479.711V466.207C291.673 464.799 292.099 463.689 292.953 462.879C293.806 462.068 294.979 461.663 296.473 461.663ZM335.568 448.287C337.061 448.287 338.256 448.692 339.152 449.503C340.091 450.313 340.56 451.38 340.56 452.703V489.567C340.56 490.932 340.112 492.041 339.216 492.895C338.363 493.705 337.211 494.111 335.76 494.111C334.309 494.111 333.136 493.705 332.24 492.895C331.387 492.041 330.96 490.932 330.96 489.567V489.055C330.021 490.676 328.677 491.956 326.928 492.895C325.221 493.791 323.28 494.239 321.104 494.239C318.416 494.239 316.005 493.556 313.872 492.191C311.781 490.783 310.139 488.841 308.944 486.367C307.792 483.849 307.216 480.969 307.216 477.727C307.216 474.484 307.792 471.647 308.944 469.215C310.139 466.74 311.781 464.841 313.872 463.519C315.963 462.196 318.373 461.535 321.104 461.535C323.237 461.535 325.157 461.983 326.864 462.879C328.613 463.775 329.957 465.033 330.896 466.655V452.511C330.896 451.231 331.323 450.207 332.176 449.439C333.029 448.671 334.16 448.287 335.568 448.287ZM323.92 486.879C326.181 486.879 327.909 486.111 329.104 484.575C330.341 482.996 330.96 480.756 330.96 477.855C330.96 474.953 330.341 472.735 329.104 471.199C327.909 469.663 326.181 468.895 323.92 468.895C321.659 468.895 319.909 469.663 318.672 471.199C317.435 472.692 316.816 474.868 316.816 477.727C316.816 480.628 317.435 482.889 318.672 484.511C319.909 486.089 321.659 486.879 323.92 486.879ZM373.218 484.383C374.071 484.383 374.754 484.724 375.266 485.407C375.821 486.089 376.098 486.964 376.098 488.031C376.098 488.756 375.885 489.439 375.458 490.079C375.031 490.676 374.434 491.188 373.666 491.615C372.215 492.383 370.53 493.023 368.61 493.535C366.69 494.004 364.919 494.239 363.298 494.239C359.885 494.239 356.898 493.577 354.338 492.255C351.821 490.932 349.879 489.055 348.514 486.623C347.149 484.148 346.466 481.247 346.466 477.919C346.466 474.719 347.127 471.881 348.45 469.407C349.773 466.932 351.607 465.012 353.954 463.647C356.301 462.239 358.967 461.535 361.954 461.535C364.813 461.535 367.309 462.175 369.442 463.455C371.618 464.692 373.303 466.484 374.498 468.831C375.693 471.135 376.29 473.844 376.29 476.959C376.29 477.897 376.055 478.623 375.586 479.135C375.159 479.604 374.541 479.839 373.73 479.839H355.81C356.109 482.356 356.877 484.191 358.114 485.343C359.351 486.452 361.122 487.007 363.426 487.007C364.663 487.007 365.773 486.857 366.754 486.559C367.735 486.26 368.823 485.855 370.018 485.343C370.615 485.087 371.191 484.873 371.746 484.703C372.301 484.489 372.791 484.383 373.218 484.383ZM362.21 468.191C360.375 468.191 358.903 468.788 357.794 469.983C356.685 471.135 356.023 472.82 355.81 475.039H368.162C368.034 472.777 367.458 471.071 366.434 469.919C365.453 468.767 364.045 468.191 362.21 468.191ZM401.839 461.535C405.594 461.535 408.388 462.644 410.223 464.863C412.058 467.039 412.975 470.345 412.975 474.783V489.567C412.975 490.975 412.527 492.084 411.631 492.895C410.778 493.705 409.604 494.111 408.111 494.111C406.618 494.111 405.444 493.705 404.591 492.895C403.738 492.084 403.311 490.975 403.311 489.567V475.231C403.311 473.097 402.906 471.54 402.095 470.559C401.327 469.577 400.111 469.087 398.447 469.087C396.442 469.087 394.82 469.727 393.583 471.007C392.388 472.287 391.791 473.993 391.791 476.127V489.567C391.791 490.975 391.364 492.084 390.511 492.895C389.658 493.705 388.484 494.111 386.991 494.111C385.498 494.111 384.303 493.705 383.407 492.895C382.554 492.084 382.127 490.975 382.127 489.567V466.079C382.127 464.756 382.575 463.689 383.471 462.879C384.41 462.068 385.604 461.663 387.055 461.663C388.378 461.663 389.444 462.068 390.255 462.879C391.108 463.647 391.535 464.649 391.535 465.887V466.783C392.644 465.076 394.074 463.775 395.823 462.879C397.615 461.983 399.62 461.535 401.839 461.535ZM437.662 487.071C438.942 487.156 439.88 487.476 440.478 488.031C441.075 488.585 441.374 489.396 441.374 490.463C441.374 491.7 440.883 492.639 439.902 493.279C438.92 493.919 437.512 494.175 435.678 494.047L433.886 493.919C426.419 493.321 422.686 489.417 422.686 482.207V469.535H420.126C418.718 469.535 417.651 469.236 416.926 468.639C416.2 467.999 415.838 467.103 415.838 465.951C415.838 464.756 416.2 463.86 416.926 463.263C417.651 462.623 418.718 462.303 420.126 462.303H422.686V457.311C422.686 455.903 423.112 454.793 423.966 453.983C424.862 453.172 426.056 452.767 427.55 452.767C429.043 452.767 430.216 453.172 431.07 453.983C431.923 454.793 432.35 455.903 432.35 457.311V462.303H436.83C439.731 462.303 441.182 463.519 441.182 465.951C441.182 467.103 440.819 467.999 440.094 468.639C439.368 469.236 438.28 469.535 436.83 469.535H432.35V482.911C432.35 484.191 432.648 485.172 433.246 485.855C433.843 486.495 434.718 486.857 435.87 486.943L437.662 487.071ZM456.844 494.239C454.241 494.239 451.98 494.025 450.06 493.599C448.14 493.172 446.454 492.489 445.004 491.551C444.364 491.167 443.873 490.655 443.532 490.015C443.19 489.375 443.02 488.649 443.02 487.839C443.02 486.857 443.297 486.047 443.852 485.407C444.406 484.724 445.089 484.383 445.9 484.383C446.454 484.383 447.009 484.489 447.564 484.703C448.118 484.873 448.694 485.087 449.292 485.343C450.486 485.897 451.66 486.345 452.812 486.687C453.964 486.985 455.393 487.135 457.1 487.135C458.593 487.135 459.745 486.9 460.556 486.431C461.409 485.961 461.836 485.321 461.836 484.511C461.836 483.913 461.644 483.444 461.26 483.103C460.918 482.719 460.257 482.377 459.276 482.079C458.294 481.78 456.737 481.417 454.604 480.991C450.806 480.265 448.076 479.177 446.412 477.727C444.748 476.276 443.916 474.249 443.916 471.647C443.916 469.727 444.492 467.999 445.644 466.463C446.838 464.927 448.46 463.732 450.508 462.879C452.556 461.983 454.86 461.535 457.42 461.535C459.254 461.535 461.046 461.769 462.796 462.239C464.545 462.708 466.102 463.369 467.468 464.223C468.79 465.033 469.452 466.228 469.452 467.807C469.452 468.831 469.174 469.684 468.62 470.367C468.065 471.049 467.382 471.391 466.572 471.391C465.59 471.391 464.417 471.007 463.052 470.239C461.985 469.684 461.004 469.279 460.108 469.023C459.254 468.724 458.23 468.575 457.036 468.575C455.713 468.575 454.668 468.831 453.9 469.343C453.132 469.812 452.748 470.473 452.748 471.327C452.748 472.223 453.196 472.905 454.092 473.375C454.988 473.844 456.716 474.313 459.276 474.783C462.134 475.337 464.374 476.02 465.996 476.831C467.617 477.599 468.79 478.58 469.516 479.775C470.241 480.969 470.604 482.484 470.604 484.319C470.604 487.348 469.345 489.759 466.828 491.551C464.353 493.343 461.025 494.239 456.844 494.239ZM480.423 494.111C478.844 494.111 477.543 493.599 476.519 492.575C475.495 491.508 474.983 490.185 474.983 488.607C474.983 487.028 475.495 485.727 476.519 484.703C477.543 483.636 478.844 483.103 480.423 483.103C482.001 483.103 483.303 483.636 484.327 484.703C485.351 485.727 485.863 487.028 485.863 488.607C485.863 490.185 485.351 491.508 484.327 492.575C483.303 493.599 482.001 494.111 480.423 494.111Z" fill="url(#paint5_linear)"/>
<defs>
<filter id="filter0_d" x="475.595" y="495.887" width="1326.1" height="927.973" filterUnits="userSpaceOnUse" color-interpolation-filters="sRGB">
<feFlood flood-opacity="0" result="BackgroundImageFix"/>
<feColorMatrix in="SourceAlpha" type="matrix" values="0 0 0 0 0 0 0 0 0 0 0 0 0 0 0 0 0 0 127 0"/>
<feOffset dy="-4"/>
<feGaussianBlur stdDeviation="2"/>
<feColorMatrix type="matrix" values="0 0 0 0 0 0 0 0 0 0 0 0 0 0 0 0 0 0 0.25 0"/>
<feBlend mode="normal" in2="BackgroundImageFix" result="effect1_dropShadow"/>
<feBlend mode="normal" in="SourceGraphic" in2="effect1_dropShadow" result="shape"/>
</filter>
<filter id="filter1_d" x="-674.524" y="-532.776" width="1326.1" height="927.973" filterUnits="userSpaceOnUse" color-interpolation-filters="sRGB">
<feFlood flood-opacity="0" result="BackgroundImageFix"/>
<feColorMatrix in="SourceAlpha" type="matrix" values="0 0 0 0 0 0 0 0 0 0 0 0 0 0 0 0 0 0 127 0"/>
<feOffset dy="4"/>
<feGaussianBlur stdDeviation="2"/>
<feColorMatrix type="matrix" values="0 0 0 0 0 0 0 0 0 0 0 0 0 0 0 0 0 0 0.25 0"/>
<feBlend mode="normal" in2="BackgroundImageFix" result="effect1_dropShadow"/>
<feBlend mode="normal" in="SourceGraphic" in2="effect1_dropShadow" result="shape"/>
</filter>
<radialGradient id="paint0_radial" cx="0" cy="0" r="1" gradientUnits="userSpaceOnUse" gradientTransform="translate(1404.86 668.115) rotate(30.5993) scale(207.014 221.48)">
<stop stop-color="#6464FF"/>
<stop offset="0.520833" stop-color="#B59EAE"/>
<stop offset="0.520833" stop-color="#B59EAE"/>
<stop offset="1" stop-color="#FFD464"/>
</radialGradient>
<radialGradient id="paint1_radial" cx="0" cy="0" r="1" gradientUnits="userSpaceOnUse" gradientTransform="translate(1150.06 992.831) rotate(84.1811) scale(433.902 683.088)">
<stop stop-color="#B1A4FF"/>
<stop offset="1" stop-color="#6464FF"/>
</radialGradient>
<radialGradient id="paint2_radial" cx="0" cy="0" r="1" gradientUnits="userSpaceOnUse" gradientTransform="translate(-0.0591989 -43.8313) rotate(84.1811) scale(433.902 683.088)">
<stop stop-color="#B1A4FF"/>
<stop offset="1" stop-color="#6464FF"/>
</radialGradient>
<linearGradient id="paint3_linear" x1="250" y1="378.5" x2="259.806" y2="445.372" gradientUnits="userSpaceOnUse">
<stop stop-color="#A864FF"/>
<stop offset="1" stop-color="#5050FF"/>
</linearGradient>
<radialGradient id="paint4_radial" cx="0" cy="0" r="1" gradientUnits="userSpaceOnUse" gradientTransform="translate(-37.891 517.776) rotate(90) scale(202.776 226.109)">
<stop stop-color="#6464FF"/>
<stop offset="0.520833" stop-color="#B59EAE"/>
<stop offset="0.520833" stop-color="#B59EAE"/>
<stop offset="1" stop-color="#FFD464"/>
</radialGradient>
<linearGradient id="paint5_linear" x1="220.933" y1="423.679" x2="239.861" y2="525.614" gradientUnits="userSpaceOnUse">
<stop stop-color="#A864FF"/>
<stop offset="1" stop-color="#6464FF"/>
</linearGradient>
</defs>
</svg>
