<svg width="1382" height="1013" viewBox="0 0 1382 1013" fill="none" xmlns="http://www.w3.org/2000/svg">
<rect width="1382.3" height="1013.22" fill="white"/>
<g filter="url(#filter0_d)">
<path d="M1749.5 425C1749.5 726 1416.5 484.5 1158.5 425C889.499 362.963 1050 57.9996 846 -33.5C642 -125 1060.93 -224.5 1312.5 -224.5C1564.07 -224.5 1749.5 173.434 1749.5 425Z" fill="url(#paint0_radial)" fill-opacity="0.51"/>
</g>
<g filter="url(#filter1_d)">
<path d="M382.5 -213.5C649.803 -75.1164 200 -31.165 63.5 187C-82.9257 421.029 -261.507 107.07 -436.551 246.165C-611.596 385.26 -507.354 -32.5192 -391.697 -255.922C-276.041 -479.325 159.097 -329.156 382.5 -213.5Z" fill="url(#paint1_radial)" fill-opacity="0.51"/>
</g>
<g filter="url(#filter2_d)">
<path d="M1134.81 124.162C1224.33 219.047 1226.3 346.26 1352.73 379.434C1479.82 412.778 1572 257.558 1572 107.217C1572 -43.1243 1473.83 -165 1352.73 -165C1231.64 -165 982.666 -37.0908 1134.81 124.162Z" fill="url(#paint2_radial)"/>
<path d="M1134.81 124.162C1224.33 219.047 1226.3 346.26 1352.73 379.434C1479.82 412.778 1572 257.558 1572 107.217C1572 -43.1243 1473.83 -165 1352.73 -165C1231.64 -165 982.666 -37.0908 1134.81 124.162Z" fill="url(#paint3_radial)"/>
</g>
<g filter="url(#filter3_d)">
<path d="M77.5003 100.5C138.746 -14.6815 271.005 41.6026 261.972 -88.8033C252.894 -219.876 76.3377 -257.537 -66.0977 -209.426C-208.533 -161.315 -266.753 20.2707 -228 135C-189.247 249.729 -26.585 296.246 77.5003 100.5Z" fill="url(#paint4_radial)"/>
<path d="M77.5003 100.5C138.746 -14.6815 271.005 41.6026 261.972 -88.8033C252.894 -219.876 76.3377 -257.537 -66.0977 -209.426C-208.533 -161.315 -266.753 20.2707 -228 135C-189.247 249.729 -26.585 296.246 77.5003 100.5Z" fill="url(#paint5_radial)"/>
</g>
<g filter="url(#filter4_d)">
<path d="M1164.42 99.5C1264.45 186.292 1266.64 302.655 1407.92 333C1549.92 363.5 1652.92 221.519 1652.92 84C1652.92 -53.5189 1543.23 -165 1407.92 -165C1272.61 -165 994.421 -48 1164.42 99.5Z" fill="url(#paint6_radial)"/>
</g>
<g filter="url(#filter5_d)">
<path d="M-420.953 1112.23C-423.241 748.009 -231.569 404.55 81.0711 474.585C407.042 547.606 219.671 882.42 467.212 991.586C714.754 1100.75 359.564 1268.17 55.1614 1270.08C-249.241 1272 -419.04 1416.63 -420.953 1112.23Z" fill="url(#paint7_radial)" fill-opacity="0.51"/>
</g>
<g filter="url(#filter6_d)">
<path d="M1245.35 1495.66C952.813 1424.77 715.658 1202.48 834.247 965.751C957.894 718.928 1188.97 936.04 1325.95 759.328C1462.92 582.617 1526.25 900.882 1467 1145.37C1407.75 1389.86 1489.84 1554.91 1245.35 1495.66Z" fill="url(#paint8_radial)" fill-opacity="0.51"/>
</g>
<g filter="url(#filter7_d)">
<path d="M294.202 902.003C185.152 787.87 189.904 546.227 36.6569 507.046C-117.373 467.665 -260.302 687.673 -259.159 869.591C-258.016 1051.51 -138.302 1198.24 8.22985 1197.31C154.761 1196.39 479.527 1095.97 294.202 902.003Z" fill="url(#paint9_radial)"/>
<path d="M294.202 902.003C185.152 787.87 189.904 546.227 36.6569 507.046C-117.373 467.665 -260.302 687.673 -259.159 869.591C-258.016 1051.51 -138.302 1198.24 8.22985 1197.31C154.761 1196.39 479.527 1095.97 294.202 902.003Z" fill="url(#paint10_radial)"/>
</g>
<g filter="url(#filter8_d)">
<path d="M1233.98 855.295C1132.58 937.379 933.882 917.095 891.23 1040.66C848.359 1164.85 1019.88 1297.48 1169.79 1308.86C1319.7 1320.25 1448.66 1231.59 1457.83 1110.84C1467 990.087 1406.28 715.798 1233.98 855.295Z" fill="url(#paint11_radial)"/>
<path d="M1233.98 855.295C1132.58 937.379 933.882 917.095 891.23 1040.66C848.359 1164.85 1019.88 1297.48 1169.79 1308.86C1319.7 1320.25 1448.66 1231.59 1457.83 1110.84C1467 990.087 1406.28 715.798 1233.98 855.295Z" fill="url(#paint12_radial)"/>
</g>
<g filter="url(#filter9_d)">
<path d="M231.879 876.908C110.177 772.647 106.642 631.861 -64.5394 596.217C-236.596 560.39 -360.15 732.975 -359.104 899.377C-358.058 1065.78 -224.482 1199.84 -60.753 1198.81C102.976 1197.78 438.705 1054.09 231.879 876.908Z" fill="url(#paint13_radial)"/>
</g>
<g filter="url(#filter10_d)">
<path d="M1212.1 908.963C1120.52 1004.63 1004.19 1001.13 966.975 1140.75C929.569 1281.09 1066.34 1390.91 1203.7 1397.64C1341.05 1404.36 1457.76 1300.25 1464.38 1165.1C1471 1029.96 1367.74 746.378 1212.1 908.963Z" fill="url(#paint14_radial)"/>
</g>
<defs>
<filter id="filter0_d" x="787.736" y="-224.5" width="965.764" height="805.508" filterUnits="userSpaceOnUse" color-interpolation-filters="sRGB">
<feFlood flood-opacity="0" result="BackgroundImageFix"/>
<feColorMatrix in="SourceAlpha" type="matrix" values="0 0 0 0 0 0 0 0 0 0 0 0 0 0 0 0 0 0 127 0"/>
<feOffset dy="4"/>
<feGaussianBlur stdDeviation="2"/>
<feColorMatrix type="matrix" values="0 0 0 0 0 0 0 0 0 0 0 0 0 0 0 0 0 0 0.25 0"/>
<feBlend mode="normal" in2="BackgroundImageFix" result="effect1_dropShadow"/>
<feBlend mode="normal" in="SourceGraphic" in2="effect1_dropShadow" result="shape"/>
</filter>
<filter id="filter1_d" x="-635.117" y="-538.554" width="1124.32" height="1131.32" filterUnits="userSpaceOnUse" color-interpolation-filters="sRGB">
<feFlood flood-opacity="0" result="BackgroundImageFix"/>
<feColorMatrix in="SourceAlpha" type="matrix" values="0 0 0 0 0 0 0 0 0 0 0 0 0 0 0 0 0 0 127 0"/>
<feOffset dy="4"/>
<feGaussianBlur stdDeviation="2"/>
<feColorMatrix type="matrix" values="0 0 0 0 0 0 0 0 0 0 0 0 0 0 0 0 0 0 0.25 0"/>
<feBlend mode="normal" in2="BackgroundImageFix" result="effect1_dropShadow"/>
<feBlend mode="normal" in="SourceGraphic" in2="effect1_dropShadow" result="shape"/>
</filter>
<filter id="filter2_d" x="1083" y="-165" width="493" height="557" filterUnits="userSpaceOnUse" color-interpolation-filters="sRGB">
<feFlood flood-opacity="0" result="BackgroundImageFix"/>
<feColorMatrix in="SourceAlpha" type="matrix" values="0 0 0 0 0 0 0 0 0 0 0 0 0 0 0 0 0 0 127 0"/>
<feOffset dy="4"/>
<feGaussianBlur stdDeviation="2"/>
<feColorMatrix type="matrix" values="0 0 0 0 0 0 0 0 0 0 0 0 0 0 0 0 0 0 0.25 0"/>
<feBlend mode="normal" in2="BackgroundImageFix" result="effect1_dropShadow"/>
<feBlend mode="normal" in="SourceGraphic" in2="effect1_dropShadow" result="shape"/>
</filter>
<filter id="filter3_d" x="-319.844" y="-298" width="653.68" height="576.773" filterUnits="userSpaceOnUse" color-interpolation-filters="sRGB">
<feFlood flood-opacity="0" result="BackgroundImageFix"/>
<feColorMatrix in="SourceAlpha" type="matrix" values="0 0 0 0 0 0 0 0 0 0 0 0 0 0 0 0 0 0 127 0"/>
<feOffset dy="4"/>
<feGaussianBlur stdDeviation="2"/>
<feColorMatrix type="matrix" values="0 0 0 0 0 0 0 0 0 0 0 0 0 0 0 0 0 0 0.25 0"/>
<feBlend mode="normal" in2="BackgroundImageFix" result="effect1_dropShadow"/>
<feBlend mode="normal" in="SourceGraphic" in2="effect1_dropShadow" result="shape"/>
</filter>
<filter id="filter4_d" x="1107" y="-165" width="549.921" height="510.176" filterUnits="userSpaceOnUse" color-interpolation-filters="sRGB">
<feFlood flood-opacity="0" result="BackgroundImageFix"/>
<feColorMatrix in="SourceAlpha" type="matrix" values="0 0 0 0 0 0 0 0 0 0 0 0 0 0 0 0 0 0 127 0"/>
<feOffset dy="4"/>
<feGaussianBlur stdDeviation="2"/>
<feColorMatrix type="matrix" values="0 0 0 0 0 0 0 0 0 0 0 0 0 0 0 0 0 0 0.25 0"/>
<feBlend mode="normal" in2="BackgroundImageFix" result="effect1_dropShadow"/>
<feBlend mode="normal" in="SourceGraphic" in2="effect1_dropShadow" result="shape"/>
</filter>
<filter id="filter5_d" x="-429" y="452" width="984.77" height="854.894" filterUnits="userSpaceOnUse" color-interpolation-filters="sRGB">
<feFlood flood-opacity="0" result="BackgroundImageFix"/>
<feColorMatrix in="SourceAlpha" type="matrix" values="0 0 0 0 0 0 0 0 0 0 0 0 0 0 0 0 0 0 127 0"/>
<feOffset dy="-6"/>
<feGaussianBlur stdDeviation="2"/>
<feColorMatrix type="matrix" values="0 0 0 0 0 0 0 0 0 0 0 0 0 0 0 0 0 0 0.25 0"/>
<feBlend mode="normal" in2="BackgroundImageFix" result="effect1_dropShadow"/>
<feBlend mode="normal" in="SourceGraphic" in2="effect1_dropShadow" result="shape"/>
</filter>
<filter id="filter6_d" x="724" y="582" width="870.787" height="951.547" filterUnits="userSpaceOnUse" color-interpolation-filters="sRGB">
<feFlood flood-opacity="0" result="BackgroundImageFix"/>
<feColorMatrix in="SourceAlpha" type="matrix" values="0 0 0 0 0 0 0 0 0 0 0 0 0 0 0 0 0 0 127 0"/>
<feOffset dy="-4"/>
<feGaussianBlur stdDeviation="2"/>
<feColorMatrix type="matrix" values="0 0 0 0 0 0 0 0 0 0 0 0 0 0 0 0 0 0 0.25 0"/>
<feBlend mode="normal" in2="BackgroundImageFix" result="effect1_dropShadow"/>
<feBlend mode="normal" in="SourceGraphic" in2="effect1_dropShadow" result="shape"/>
</filter>
<filter id="filter7_d" x="-265.456" y="492.243" width="620.455" height="706.739" filterUnits="userSpaceOnUse" color-interpolation-filters="sRGB">
<feFlood flood-opacity="0" result="BackgroundImageFix"/>
<feColorMatrix in="SourceAlpha" type="matrix" values="0 0 0 0 0 0 0 0 0 0 0 0 0 0 0 0 0 0 127 0"/>
<feOffset dy="-4"/>
<feGaussianBlur stdDeviation="2"/>
<feColorMatrix type="matrix" values="0 0 0 0 0 0 0 0 0 0 0 0 0 0 0 0 0 0 0.25 0"/>
<feBlend mode="normal" in2="BackgroundImageFix" result="effect1_dropShadow"/>
<feBlend mode="normal" in="SourceGraphic" in2="effect1_dropShadow" result="shape"/>
</filter>
<filter id="filter8_d" x="864.576" y="776.893" width="618.699" height="552.58" filterUnits="userSpaceOnUse" color-interpolation-filters="sRGB">
<feFlood flood-opacity="0" result="BackgroundImageFix"/>
<feColorMatrix in="SourceAlpha" type="matrix" values="0 0 0 0 0 0 0 0 0 0 0 0 0 0 0 0 0 0 127 0"/>
<feOffset dy="-4"/>
<feGaussianBlur stdDeviation="2"/>
<feColorMatrix type="matrix" values="0 0 0 0 0 0 0 0 0 0 0 0 0 0 0 0 0 0 0.25 0"/>
<feBlend mode="normal" in2="BackgroundImageFix" result="effect1_dropShadow"/>
<feBlend mode="normal" in="SourceGraphic" in2="effect1_dropShadow" result="shape"/>
</filter>
<filter id="filter9_d" x="-365.029" y="580.906" width="667.56" height="619.77" filterUnits="userSpaceOnUse" color-interpolation-filters="sRGB">
<feFlood flood-opacity="0" result="BackgroundImageFix"/>
<feColorMatrix in="SourceAlpha" type="matrix" values="0 0 0 0 0 0 0 0 0 0 0 0 0 0 0 0 0 0 127 0"/>
<feOffset dy="-4"/>
<feGaussianBlur stdDeviation="2"/>
<feColorMatrix type="matrix" values="0 0 0 0 0 0 0 0 0 0 0 0 0 0 0 0 0 0 0.25 0"/>
<feBlend mode="normal" in2="BackgroundImageFix" result="effect1_dropShadow"/>
<feBlend mode="normal" in="SourceGraphic" in2="effect1_dropShadow" result="shape"/>
</filter>
<filter id="filter10_d" x="946.824" y="835.985" width="536.073" height="573.827" filterUnits="userSpaceOnUse" color-interpolation-filters="sRGB">
<feFlood flood-opacity="0" result="BackgroundImageFix"/>
<feColorMatrix in="SourceAlpha" type="matrix" values="0 0 0 0 0 0 0 0 0 0 0 0 0 0 0 0 0 0 127 0"/>
<feOffset dy="-4"/>
<feGaussianBlur stdDeviation="2"/>
<feColorMatrix type="matrix" values="0 0 0 0 0 0 0 0 0 0 0 0 0 0 0 0 0 0 0.25 0"/>
<feBlend mode="normal" in2="BackgroundImageFix" result="effect1_dropShadow"/>
<feBlend mode="normal" in="SourceGraphic" in2="effect1_dropShadow" result="shape"/>
</filter>
<radialGradient id="paint0_radial" cx="0" cy="0" r="1" gradientUnits="userSpaceOnUse" gradientTransform="translate(1370 64.5) rotate(125.018) scale(365.091 438.455)">
<stop stop-color="#FFD464"/>
<stop offset="1" stop-color="#5050FF"/>
</radialGradient>
<radialGradient id="paint1_radial" cx="0" cy="0" r="1" gradientUnits="userSpaceOnUse" gradientTransform="translate(-107 -45) rotate(35.5992) scale(324.68 545.115)">
<stop stop-color="#5A5AFF" stop-opacity="0.8"/>
<stop offset="1" stop-color="#FFDBA5"/>
</radialGradient>
<radialGradient id="paint2_radial" cx="0" cy="0" r="1" gradientUnits="userSpaceOnUse" gradientTransform="translate(1330 109) rotate(129.593) scale(227.515 359.073)">
<stop stop-color="#D8AA36"/>
<stop offset="0.380208" stop-color="#C9A882"/>
<stop offset="1" stop-color="#6464FF"/>
</radialGradient>
<radialGradient id="paint3_radial" cx="0" cy="0" r="1" gradientUnits="userSpaceOnUse" gradientTransform="translate(1330 109) rotate(129.593) scale(227.515 359.073)">
<stop stop-color="#D8AA36"/>
<stop offset="0.380208" stop-color="#C9A882"/>
<stop offset="1" stop-color="#6464FF"/>
</radialGradient>
<radialGradient id="paint4_radial" cx="0" cy="0" r="1" gradientUnits="userSpaceOnUse" gradientTransform="translate(-20.5 -38) rotate(30.2496) scale(302.719 477.761)">
<stop stop-color="#FFDBA5"/>
<stop offset="1" stop-color="#6464FF" stop-opacity="0.08"/>
</radialGradient>
<radialGradient id="paint5_radial" cx="0" cy="0" r="1" gradientUnits="userSpaceOnUse" gradientTransform="translate(-20.5 -38) rotate(30.2496) scale(302.719 477.761)">
<stop stop-color="#FFDBA5"/>
<stop offset="1" stop-color="#6464FF" stop-opacity="0.08"/>
</radialGradient>
<radialGradient id="paint6_radial" cx="0" cy="0" r="1" gradientUnits="userSpaceOnUse" gradientTransform="translate(1411 58.5) rotate(135.455) scale(267.295 288.45)">
<stop stop-color="#6464FF"/>
<stop offset="1" stop-color="#FFDBA5"/>
</radialGradient>
<radialGradient id="paint7_radial" cx="0" cy="0" r="1" gradientUnits="userSpaceOnUse" gradientTransform="translate(22.021 914.342) rotate(-82.0283) scale(375.98 335.758)">
<stop stop-color="#FFD464"/>
<stop offset="1" stop-color="#5A5AFF"/>
</radialGradient>
<radialGradient id="paint8_radial" cx="0" cy="0" r="1" gradientUnits="userSpaceOnUse" gradientTransform="translate(1175.11 1100.91) rotate(-158.046) scale(310.713 277.474)">
<stop stop-color="#FFD464"/>
<stop offset="1" stop-color="#5A5AFF"/>
</radialGradient>
<radialGradient id="paint9_radial" cx="0" cy="0" r="1" gradientUnits="userSpaceOnUse" gradientTransform="translate(31.4508 866.671) rotate(-50.7674) scale(275.306 434.498)">
<stop stop-color="#D8AA36"/>
<stop offset="0.380208" stop-color="#C9A882"/>
<stop offset="1" stop-color="#6464FF"/>
</radialGradient>
<radialGradient id="paint10_radial" cx="0" cy="0" r="1" gradientUnits="userSpaceOnUse" gradientTransform="translate(31.4508 866.671) rotate(-50.7674) scale(275.306 434.498)">
<stop stop-color="#D8AA36"/>
<stop offset="0.380208" stop-color="#C9A882"/>
<stop offset="1" stop-color="#6464FF"/>
</radialGradient>
<radialGradient id="paint11_radial" cx="0" cy="0" r="1" gradientUnits="userSpaceOnUse" gradientTransform="translate(1187.07 1069.31) rotate(-136.065) scale(227.515 359.073)">
<stop stop-color="#D8AA36"/>
<stop offset="0.380208" stop-color="#C9A882"/>
<stop offset="1" stop-color="#6464FF"/>
</radialGradient>
<radialGradient id="paint12_radial" cx="0" cy="0" r="1" gradientUnits="userSpaceOnUse" gradientTransform="translate(1187.07 1069.31) rotate(-136.065) scale(227.515 359.073)">
<stop stop-color="#D8AA36"/>
<stop offset="0.380208" stop-color="#C9A882"/>
<stop offset="1" stop-color="#6464FF"/>
</radialGradient>
<radialGradient id="paint13_radial" cx="0" cy="0" r="1" gradientUnits="userSpaceOnUse" gradientTransform="translate(-66.1781 928.394) rotate(-44.9053) scale(323.441 349.04)">
<stop stop-color="#6464FF"/>
<stop offset="1" stop-color="#FFDBA5"/>
</radialGradient>
<radialGradient id="paint14_radial" cx="0" cy="0" r="1" gradientUnits="userSpaceOnUse" gradientTransform="translate(1241 1157.25) rotate(-131.743) scale(267.295 288.45)">
<stop stop-color="#6464FF"/>
<stop offset="1" stop-color="#FFDBA5"/>
</radialGradient>
</defs>
</svg>
